%TF.GenerationSoftware,KiCad,Pcbnew,9.0.4*%
%TF.CreationDate,2025-10-31T21:48:02-05:00*%
%TF.ProjectId,Control SWARM,436f6e74-726f-46c2-9053-5741524d2e6b,rev?*%
%TF.SameCoordinates,Original*%
%TF.FileFunction,Paste,Top*%
%TF.FilePolarity,Positive*%
%FSLAX46Y46*%
G04 Gerber Fmt 4.6, Leading zero omitted, Abs format (unit mm)*
G04 Created by KiCad (PCBNEW 9.0.4) date 2025-10-31 21:48:02*
%MOMM*%
%LPD*%
G01*
G04 APERTURE LIST*
G04 Aperture macros list*
%AMRoundRect*
0 Rectangle with rounded corners*
0 $1 Rounding radius*
0 $2 $3 $4 $5 $6 $7 $8 $9 X,Y pos of 4 corners*
0 Add a 4 corners polygon primitive as box body*
4,1,4,$2,$3,$4,$5,$6,$7,$8,$9,$2,$3,0*
0 Add four circle primitives for the rounded corners*
1,1,$1+$1,$2,$3*
1,1,$1+$1,$4,$5*
1,1,$1+$1,$6,$7*
1,1,$1+$1,$8,$9*
0 Add four rect primitives between the rounded corners*
20,1,$1+$1,$2,$3,$4,$5,0*
20,1,$1+$1,$4,$5,$6,$7,0*
20,1,$1+$1,$6,$7,$8,$9,0*
20,1,$1+$1,$8,$9,$2,$3,0*%
G04 Aperture macros list end*
%ADD10RoundRect,0.090000X0.090000X-0.139000X0.090000X0.139000X-0.090000X0.139000X-0.090000X-0.139000X0*%
%ADD11RoundRect,0.090000X0.139000X0.090000X-0.139000X0.090000X-0.139000X-0.090000X0.139000X-0.090000X0*%
%ADD12RoundRect,0.250000X0.400000X-0.525000X0.400000X0.525000X-0.400000X0.525000X-0.400000X-0.525000X0*%
%ADD13RoundRect,0.250000X0.525000X0.400000X-0.525000X0.400000X-0.525000X-0.400000X0.525000X-0.400000X0*%
%ADD14RoundRect,0.090000X-0.139000X-0.090000X0.139000X-0.090000X0.139000X0.090000X-0.139000X0.090000X0*%
%ADD15RoundRect,0.090000X-0.090000X0.139000X-0.090000X-0.139000X0.090000X-0.139000X0.090000X0.139000X0*%
%ADD16RoundRect,0.250000X-0.400000X0.525000X-0.400000X-0.525000X0.400000X-0.525000X0.400000X0.525000X0*%
%ADD17RoundRect,0.250000X-0.525000X-0.400000X0.525000X-0.400000X0.525000X0.400000X-0.525000X0.400000X0*%
G04 APERTURE END LIST*
D10*
%TO.C,R7*%
X156919700Y-56495300D03*
X156919700Y-55630300D03*
%TD*%
D11*
%TO.C,R10*%
X167632500Y-43800000D03*
X166767500Y-43800000D03*
%TD*%
%TO.C,R13*%
X158400000Y-105400000D03*
X157535000Y-105400000D03*
%TD*%
D12*
%TO.C,B4*%
X190750000Y-60480000D03*
X190750000Y-52520000D03*
X195250000Y-60480000D03*
X195250000Y-52520000D03*
%TD*%
D13*
%TO.C,B5*%
X178980000Y-40750000D03*
X171020000Y-40750000D03*
X178980000Y-36250000D03*
X171020000Y-36250000D03*
%TD*%
D14*
%TO.C,R14*%
X174767500Y-31400000D03*
X175632500Y-31400000D03*
%TD*%
D15*
%TO.C,R6*%
X192600000Y-55630300D03*
X192600000Y-56495300D03*
%TD*%
D10*
%TO.C,R1*%
X159250000Y-85000000D03*
X159250000Y-84135000D03*
%TD*%
D12*
%TO.C,B1*%
X157000000Y-88547500D03*
X157000000Y-80587500D03*
X161500000Y-88547500D03*
X161500000Y-80587500D03*
%TD*%
%TO.C,B2*%
X167500000Y-88547500D03*
X167500000Y-80587500D03*
X172000000Y-88547500D03*
X172000000Y-80587500D03*
%TD*%
D16*
%TO.C,B7*%
X159250000Y-52520000D03*
X159250000Y-60480000D03*
X154750000Y-52520000D03*
X154750000Y-60480000D03*
%TD*%
D14*
%TO.C,R4*%
X157567500Y-103500000D03*
X158432500Y-103500000D03*
%TD*%
D10*
%TO.C,R2*%
X169750000Y-85000000D03*
X169750000Y-84135000D03*
%TD*%
D12*
%TO.C,B8*%
X188200000Y-88547500D03*
X188200000Y-80587500D03*
X192700000Y-88547500D03*
X192700000Y-80587500D03*
%TD*%
D17*
%TO.C,B6*%
X171020000Y-72250000D03*
X178980000Y-72250000D03*
X171020000Y-76750000D03*
X178980000Y-76750000D03*
%TD*%
D12*
%TO.C,B3*%
X177800000Y-88547500D03*
X177800000Y-80587500D03*
X182300000Y-88547500D03*
X182300000Y-80587500D03*
%TD*%
D11*
%TO.C,R5*%
X175352200Y-73962800D03*
X174487200Y-73962800D03*
%TD*%
D14*
%TO.C,R8*%
X174487200Y-38162800D03*
X175352200Y-38162800D03*
%TD*%
D10*
%TO.C,R9*%
X190450000Y-85000000D03*
X190450000Y-84135000D03*
%TD*%
%TO.C,R3*%
X180050000Y-85000000D03*
X180050000Y-84135000D03*
%TD*%
M02*
