M48
; DRILL file {KiCad 9.0.4} date 2025-10-31T21:47:26-0500
; FORMAT={-:-/ absolute / inch / decimal}
; #@! TF.CreationDate,2025-10-31T21:47:26-05:00
; #@! TF.GenerationSoftware,Kicad,Pcbnew,9.0.4
; #@! TF.FileFunction,Plated,1,2,PTH
FMAT,2
INCH
; #@! TA.AperFunction,Plated,PTH,ComponentDrill
T1C0.0331
; #@! TA.AperFunction,Plated,PTH,ComponentDrill
T2C0.0350
; #@! TA.AperFunction,Plated,PTH,ComponentDrill
T3C0.0354
; #@! TA.AperFunction,Plated,PTH,ComponentDrill
T4C0.0512
; #@! TA.AperFunction,Plated,PTH,ComponentDrill
T5C0.0550
; #@! TA.AperFunction,Plated,PTH,ComponentDrill
T6C0.0591
%
G90
G05
T1
X6.5898Y-3.6858
X6.5898Y-3.7858
X6.5898Y-3.8858
X6.5898Y-3.9858
X6.5898Y-4.0858
X6.5898Y-4.1858
X6.5898Y-4.2858
X6.5898Y-4.3858
X7.1898Y-3.6858
X7.1898Y-3.7858
X7.1898Y-3.8858
X7.1898Y-3.9858
X7.1898Y-4.0858
X7.1898Y-4.1858
X7.1898Y-4.2858
X7.1898Y-4.3858
T2
X6.4898Y-2.1244
X6.4898Y-2.2244
X6.4898Y-2.3244
X6.7898Y-2.6244
X6.8898Y-2.6244
X6.9898Y-2.6244
T3
X6.0925Y-1.6417
X6.0925Y-1.7205
X6.0925Y-1.7992
X6.7648Y-1.7244
X6.7648Y-1.9244
X6.8504Y-1.1811
X6.9504Y-1.1811
X7.0148Y-1.7244
X7.0148Y-1.9244
T4
X6.189Y-3.7087
X6.189Y-3.9055
T5
X6.5898Y-1.9619
X6.5898Y-2.4869
X7.1898Y-1.9619
X7.1898Y-2.4869
T6
X6.0925Y-1.5591
X6.0925Y-1.8819
M30
