%TF.GenerationSoftware,KiCad,Pcbnew,9.0.4*%
%TF.CreationDate,2025-10-31T21:48:02-05:00*%
%TF.ProjectId,Control SWARM,436f6e74-726f-46c2-9053-5741524d2e6b,rev?*%
%TF.SameCoordinates,Original*%
%TF.FileFunction,Copper,L1,Top*%
%TF.FilePolarity,Positive*%
%FSLAX46Y46*%
G04 Gerber Fmt 4.6, Leading zero omitted, Abs format (unit mm)*
G04 Created by KiCad (PCBNEW 9.0.4) date 2025-10-31 21:48:02*
%MOMM*%
%LPD*%
G01*
G04 APERTURE LIST*
G04 Aperture macros list*
%AMRoundRect*
0 Rectangle with rounded corners*
0 $1 Rounding radius*
0 $2 $3 $4 $5 $6 $7 $8 $9 X,Y pos of 4 corners*
0 Add a 4 corners polygon primitive as box body*
4,1,4,$2,$3,$4,$5,$6,$7,$8,$9,$2,$3,0*
0 Add four circle primitives for the rounded corners*
1,1,$1+$1,$2,$3*
1,1,$1+$1,$4,$5*
1,1,$1+$1,$6,$7*
1,1,$1+$1,$8,$9*
0 Add four rect primitives between the rounded corners*
20,1,$1+$1,$2,$3,$4,$5,0*
20,1,$1+$1,$4,$5,$6,$7,0*
20,1,$1+$1,$6,$7,$8,$9,0*
20,1,$1+$1,$8,$9,$2,$3,0*%
G04 Aperture macros list end*
%TA.AperFunction,SMDPad,CuDef*%
%ADD10RoundRect,0.100000X0.100000X-0.217500X0.100000X0.217500X-0.100000X0.217500X-0.100000X-0.217500X0*%
%TD*%
%TA.AperFunction,SMDPad,CuDef*%
%ADD11RoundRect,0.100000X0.217500X0.100000X-0.217500X0.100000X-0.217500X-0.100000X0.217500X-0.100000X0*%
%TD*%
%TA.AperFunction,SMDPad,CuDef*%
%ADD12RoundRect,0.250000X0.400000X-0.525000X0.400000X0.525000X-0.400000X0.525000X-0.400000X-0.525000X0*%
%TD*%
%TA.AperFunction,SMDPad,CuDef*%
%ADD13RoundRect,0.250000X0.525000X0.400000X-0.525000X0.400000X-0.525000X-0.400000X0.525000X-0.400000X0*%
%TD*%
%TA.AperFunction,ComponentPad*%
%ADD14O,3.500000X2.200000*%
%TD*%
%TA.AperFunction,ComponentPad*%
%ADD15R,2.500000X1.500000*%
%TD*%
%TA.AperFunction,ComponentPad*%
%ADD16O,2.500000X1.500000*%
%TD*%
%TA.AperFunction,ComponentPad*%
%ADD17RoundRect,0.250001X1.149999X-1.149999X1.149999X1.149999X-1.149999X1.149999X-1.149999X-1.149999X0*%
%TD*%
%TA.AperFunction,ComponentPad*%
%ADD18C,2.800000*%
%TD*%
%TA.AperFunction,SMDPad,CuDef*%
%ADD19RoundRect,0.100000X-0.217500X-0.100000X0.217500X-0.100000X0.217500X0.100000X-0.217500X0.100000X0*%
%TD*%
%TA.AperFunction,SMDPad,CuDef*%
%ADD20RoundRect,0.100000X-0.100000X0.217500X-0.100000X-0.217500X0.100000X-0.217500X0.100000X0.217500X0*%
%TD*%
%TA.AperFunction,SMDPad,CuDef*%
%ADD21RoundRect,0.250000X-0.400000X0.525000X-0.400000X-0.525000X0.400000X-0.525000X0.400000X0.525000X0*%
%TD*%
%TA.AperFunction,ComponentPad*%
%ADD22R,1.800000X1.800000*%
%TD*%
%TA.AperFunction,ComponentPad*%
%ADD23C,1.800000*%
%TD*%
%TA.AperFunction,SMDPad,CuDef*%
%ADD24RoundRect,0.250000X-0.525000X-0.400000X0.525000X-0.400000X0.525000X0.400000X-0.525000X0.400000X0*%
%TD*%
%TA.AperFunction,ComponentPad*%
%ADD25C,1.348000*%
%TD*%
%TA.AperFunction,ComponentPad*%
%ADD26C,1.778000*%
%TD*%
%TA.AperFunction,ComponentPad*%
%ADD27C,2.286000*%
%TD*%
%TA.AperFunction,Conductor*%
%ADD28C,0.500000*%
%TD*%
%TA.AperFunction,Conductor*%
%ADD29C,0.200000*%
%TD*%
G04 APERTURE END LIST*
D10*
%TO.P,R7,1*%
%TO.N,/GPIO8 SDA*%
X156919700Y-56470300D03*
%TO.P,R7,2*%
%TO.N,GND*%
X156919700Y-55655300D03*
%TD*%
D11*
%TO.P,R10,1*%
%TO.N,/GPIO2 A2*%
X167607500Y-43800000D03*
%TO.P,R10,2*%
%TO.N,GND*%
X166792500Y-43800000D03*
%TD*%
%TO.P,R13,1*%
%TO.N,/GPIO6 MOSI*%
X158375000Y-105400000D03*
%TO.P,R13,2*%
%TO.N,GND*%
X157560000Y-105400000D03*
%TD*%
D12*
%TO.P,B4,1,1*%
%TO.N,/GPIO4 A4 SCK*%
X190750000Y-60480000D03*
X190750000Y-52520000D03*
%TO.P,B4,2,2*%
%TO.N,+3.3V*%
X195250000Y-60480000D03*
X195250000Y-52520000D03*
%TD*%
D13*
%TO.P,B5,1,1*%
%TO.N,/GPIO3 A3*%
X178980000Y-40750000D03*
X171020000Y-40750000D03*
%TO.P,B5,2,2*%
%TO.N,+3.3V*%
X178980000Y-36250000D03*
X171020000Y-36250000D03*
%TD*%
D14*
%TO.P,SW2,*%
%TO.N,*%
X154750000Y-39600000D03*
X154750000Y-47800000D03*
D15*
%TO.P,SW2,1,A*%
%TO.N,unconnected-(SW2-A-Pad1)*%
X154750000Y-41700000D03*
D16*
%TO.P,SW2,2,B*%
%TO.N,/VOLTAGE REGULATED*%
X154750000Y-43700000D03*
%TO.P,SW2,3,C*%
%TO.N,+3.6V*%
X154750000Y-45700000D03*
%TD*%
D17*
%TO.P,J1,1,Pin_1*%
%TO.N,+3.6V*%
X157200000Y-99200000D03*
D18*
%TO.P,J1,2,Pin_2*%
%TO.N,GND*%
X157200000Y-94200000D03*
%TD*%
D19*
%TO.P,R14,1*%
%TO.N,/GPIO9 SCL*%
X174792500Y-31400000D03*
%TO.P,R14,2*%
%TO.N,Net-(D1-A)*%
X175607500Y-31400000D03*
%TD*%
D20*
%TO.P,R6,1*%
%TO.N,/GPIO4 A4 SCK*%
X192600000Y-55655300D03*
%TO.P,R6,2*%
%TO.N,GND*%
X192600000Y-56470300D03*
%TD*%
D10*
%TO.P,R1,1*%
%TO.N,/GPIO7 SS*%
X159250000Y-84975000D03*
%TO.P,R1,2*%
%TO.N,GND*%
X159250000Y-84160000D03*
%TD*%
D12*
%TO.P,B1,1,1*%
%TO.N,/GPIO7 SS*%
X157000000Y-88547500D03*
X157000000Y-80587500D03*
%TO.P,B1,2,2*%
%TO.N,+3.3V*%
X161500000Y-88547500D03*
X161500000Y-80587500D03*
%TD*%
%TO.P,B2,1,1*%
%TO.N,/GPIO10*%
X167500000Y-88547500D03*
X167500000Y-80587500D03*
%TO.P,B2,2,2*%
%TO.N,+3.3V*%
X172000000Y-88547500D03*
X172000000Y-80587500D03*
%TD*%
D21*
%TO.P,B7,1,1*%
%TO.N,/GPIO8 SDA*%
X159250000Y-52520000D03*
X159250000Y-60480000D03*
%TO.P,B7,2,2*%
%TO.N,+3.3V*%
X154750000Y-52520000D03*
X154750000Y-60480000D03*
%TD*%
D19*
%TO.P,R4,1*%
%TO.N,+3.6V*%
X157592500Y-103500000D03*
%TO.P,R4,2*%
%TO.N,/GPIO6 MOSI*%
X158407500Y-103500000D03*
%TD*%
D22*
%TO.P,D1,1,K*%
%TO.N,GND*%
X174000000Y-30000000D03*
D23*
%TO.P,D1,2,A*%
%TO.N,Net-(D1-A)*%
X176540000Y-30000000D03*
%TD*%
D10*
%TO.P,R2,1*%
%TO.N,/GPIO10*%
X169750000Y-84975000D03*
%TO.P,R2,2*%
%TO.N,GND*%
X169750000Y-84160000D03*
%TD*%
D12*
%TO.P,B8,1,1*%
%TO.N,/GPIO21 TX*%
X188200000Y-88547500D03*
X188200000Y-80587500D03*
%TO.P,B8,2,2*%
%TO.N,+3.3V*%
X192700000Y-88547500D03*
X192700000Y-80587500D03*
%TD*%
D24*
%TO.P,B6,1,1*%
%TO.N,/GPIO5 A5 MISO*%
X171020000Y-72250000D03*
X178980000Y-72250000D03*
%TO.P,B6,2,2*%
%TO.N,+3.3V*%
X171020000Y-76750000D03*
X178980000Y-76750000D03*
%TD*%
D12*
%TO.P,B3,1,1*%
%TO.N,/GPIO20 RX*%
X177800000Y-88547500D03*
X177800000Y-80587500D03*
%TO.P,B3,2,2*%
%TO.N,+3.3V*%
X182300000Y-88547500D03*
X182300000Y-80587500D03*
%TD*%
D11*
%TO.P,R5,1*%
%TO.N,/GPIO5 A5 MISO*%
X175327200Y-73962800D03*
%TO.P,R5,2*%
%TO.N,GND*%
X174512200Y-73962800D03*
%TD*%
D25*
%TO.P,U1,0,GPIO0*%
%TO.N,/GPIO0 A0*%
X167380000Y-93620000D03*
%TO.P,U1,1,GPIO1*%
%TO.N,/GPIO1 A1*%
X167380000Y-96160000D03*
%TO.P,U1,2,GPIO2*%
%TO.N,/GPIO2 A2*%
X167380000Y-98700000D03*
%TO.P,U1,3,GPIO3*%
%TO.N,/GPIO3 A3*%
X167380000Y-101240000D03*
%TO.P,U1,3.3,3V3*%
%TO.N,+3.3V*%
X167380000Y-106320000D03*
%TO.P,U1,4,GPIO4*%
%TO.N,/GPIO4 A4 SCK*%
X167380000Y-103780000D03*
%TO.P,U1,5,GPIO5*%
%TO.N,/GPIO5 A5 MISO*%
X182620000Y-111400000D03*
%TO.P,U1,5V,5V*%
%TO.N,/VOLTAGE REGULATED*%
X167380000Y-111400000D03*
%TO.P,U1,6,GPIO6*%
%TO.N,/GPIO6 MOSI*%
X182620000Y-108860000D03*
%TO.P,U1,7,GPIO7*%
%TO.N,/GPIO7 SS*%
X182620000Y-106320000D03*
%TO.P,U1,8,GPIO8*%
%TO.N,/GPIO8 SDA*%
X182620000Y-103780000D03*
%TO.P,U1,9,GPIO9*%
%TO.N,/GPIO9 SCL*%
X182620000Y-101240000D03*
%TO.P,U1,10,GPIO10*%
%TO.N,/GPIO10*%
X182620000Y-98700000D03*
%TO.P,U1,20,GPIO20*%
%TO.N,/GPIO20 RX*%
X182620000Y-96160000D03*
%TO.P,U1,21,GPIO21*%
%TO.N,/GPIO21 TX*%
X182620000Y-93620000D03*
%TO.P,U1,G,GND*%
%TO.N,GND*%
X167380000Y-108860000D03*
%TD*%
D19*
%TO.P,R8,1*%
%TO.N,/GPIO3 A3*%
X174512200Y-38162800D03*
%TO.P,R8,2*%
%TO.N,GND*%
X175327200Y-38162800D03*
%TD*%
D10*
%TO.P,R9,1*%
%TO.N,/GPIO21 TX*%
X190450000Y-84975000D03*
%TO.P,R9,2*%
%TO.N,GND*%
X190450000Y-84160000D03*
%TD*%
D26*
%TO.P,U2,B1A,SEL+*%
%TO.N,+3.3V*%
X171825000Y-43800000D03*
%TO.P,U2,B1B*%
%TO.N,N/C*%
X178175000Y-43800000D03*
%TO.P,U2,B2A,SEL-*%
%TO.N,/GPIO2 A2*%
X171825000Y-48880000D03*
%TO.P,U2,B2B*%
%TO.N,N/C*%
X178175000Y-48880000D03*
%TO.P,U2,H1,H+*%
%TO.N,/GPIO1 A1*%
X172460000Y-66660000D03*
%TO.P,U2,H2,H*%
%TO.N,GND*%
X175000000Y-66660000D03*
%TO.P,U2,H3,H-*%
%TO.N,unconnected-(U2-H--PadH3)*%
X177540000Y-66660000D03*
D27*
%TO.P,U2,S1,SHIELD*%
%TO.N,GND*%
X167380000Y-49832500D03*
%TO.P,U2,S2,SHIELD*%
X167380000Y-63167500D03*
%TO.P,U2,S3,SHIELD*%
X182620000Y-63167500D03*
%TO.P,U2,S4,SHIELD*%
X182620000Y-49832500D03*
D26*
%TO.P,U2,V1,V+*%
%TO.N,/GPIO0 A0*%
X164840000Y-53960000D03*
%TO.P,U2,V2,V*%
%TO.N,+3.3V*%
X164840000Y-56500000D03*
%TO.P,U2,V3,V-*%
%TO.N,unconnected-(U2-V--PadV3)*%
X164840000Y-59040000D03*
%TD*%
D10*
%TO.P,R3,1*%
%TO.N,/GPIO20 RX*%
X180050000Y-84975000D03*
%TO.P,R3,2*%
%TO.N,GND*%
X180050000Y-84160000D03*
%TD*%
D28*
%TO.N,/GPIO9 SCL*%
X174792500Y-31400000D02*
X174792500Y-31684504D01*
X175208996Y-32101000D02*
X176349603Y-32101000D01*
X188301000Y-28951000D02*
X198299000Y-38949000D01*
X197401000Y-103199000D02*
X187750000Y-112850000D01*
X198299000Y-54601000D02*
X193850000Y-59050000D01*
X184446000Y-103066000D02*
X182620000Y-101240000D01*
X176349603Y-32101000D02*
X179499603Y-28951000D01*
X174792500Y-31684504D02*
X175208996Y-32101000D01*
X187750000Y-112850000D02*
X182479009Y-112850000D01*
X183475000Y-110275000D02*
X184446000Y-109304000D01*
X179499603Y-28951000D02*
X188301000Y-28951000D01*
X193850000Y-61558636D02*
X197400000Y-65108636D01*
X182479009Y-112850000D02*
X181495000Y-111865991D01*
X198299000Y-38949000D02*
X198299000Y-54601000D01*
X193850000Y-59050000D02*
X193850000Y-61558636D01*
X197400000Y-65108636D02*
X197400000Y-81208636D01*
X181495000Y-111865991D02*
X181495000Y-110934009D01*
X197400000Y-81208636D02*
X197401000Y-81209636D01*
X197401000Y-81209636D02*
X197401000Y-103199000D01*
X181495000Y-110934009D02*
X182154009Y-110275000D01*
X182154009Y-110275000D02*
X183475000Y-110275000D01*
X184446000Y-109304000D02*
X184446000Y-103066000D01*
%TO.N,+3.3V*%
X154669700Y-60042800D02*
X154669700Y-61425504D01*
X158651000Y-113551000D02*
X188049000Y-113551000D01*
X152019971Y-106919971D02*
X152251000Y-107151000D01*
X154669700Y-61425504D02*
X152019971Y-64075233D01*
X152251000Y-107151000D02*
X154900081Y-107151000D01*
X157674000Y-109924919D02*
X157674000Y-112574000D01*
X154900081Y-107151000D02*
X157674000Y-109924919D01*
X188049000Y-113551000D02*
X198102000Y-103498000D01*
X198102000Y-80919272D02*
X198101000Y-80918272D01*
X198101000Y-63331000D02*
X195250000Y-60480000D01*
X198102000Y-103498000D02*
X198102000Y-80919272D01*
X157674000Y-112574000D02*
X158651000Y-113551000D01*
X152019971Y-64075233D02*
X152019971Y-106919971D01*
X198101000Y-80918272D02*
X198101000Y-63331000D01*
%TO.N,/GPIO5 A5 MISO*%
X178980000Y-72250000D02*
X184313636Y-72250000D01*
X183369000Y-112149000D02*
X182620000Y-111400000D01*
X191331818Y-81142610D02*
X192002708Y-81813500D01*
X184313636Y-72250000D02*
X191331818Y-79268182D01*
X187451000Y-112149000D02*
X183369000Y-112149000D01*
X191331818Y-79268182D02*
X191331818Y-81142610D01*
X196321000Y-81121000D02*
X196700000Y-81500000D01*
X192002708Y-81813500D02*
X193397292Y-81813500D01*
X196700000Y-81500000D02*
X196700000Y-102900000D01*
X194089792Y-81121000D02*
X196321000Y-81121000D01*
X193397292Y-81813500D02*
X194089792Y-81121000D01*
X196700000Y-102900000D02*
X187451000Y-112149000D01*
%TO.N,GND*%
X157560000Y-105400000D02*
X156510000Y-106450000D01*
X156510000Y-106450000D02*
X153820971Y-106450000D01*
X153820971Y-106450000D02*
X152720971Y-105350000D01*
X152720971Y-105350000D02*
X152720971Y-64754937D01*
X151800000Y-55249808D02*
X151800000Y-39400000D01*
X153750000Y-37450000D02*
X158400000Y-37450000D01*
X152720971Y-64754937D02*
X156100000Y-61375908D01*
X156100000Y-61375908D02*
X156100000Y-59549808D01*
X156100000Y-59549808D02*
X151800000Y-55249808D01*
X151800000Y-39400000D02*
X153750000Y-37450000D01*
X158400000Y-37450000D02*
X165850000Y-30000000D01*
X165850000Y-30000000D02*
X174000000Y-30000000D01*
%TO.N,/VOLTAGE REGULATED*%
X158902000Y-49689364D02*
X158902000Y-47102000D01*
X158902000Y-47102000D02*
X155500000Y-43700000D01*
X155500000Y-43700000D02*
X154750000Y-43700000D01*
%TO.N,+3.6V*%
X154750000Y-45700000D02*
X155500000Y-45700000D01*
X155500000Y-45700000D02*
X158201000Y-48401000D01*
X158201000Y-48401000D02*
X158201000Y-49399000D01*
X158201000Y-49399000D02*
X156099000Y-51501000D01*
X156099000Y-51501000D02*
X156099000Y-53601000D01*
X156099000Y-53601000D02*
X154450000Y-55250000D01*
X156408636Y-99200000D02*
X157200000Y-99200000D01*
X154450000Y-55250000D02*
X154450000Y-56908444D01*
X154450000Y-56908444D02*
X156849000Y-59307444D01*
X156849000Y-59307444D02*
X156849000Y-61618272D01*
X156849000Y-61618272D02*
X153421971Y-65045301D01*
X153421971Y-65045301D02*
X153421971Y-96213335D01*
X153421971Y-96213335D02*
X156408636Y-99200000D01*
%TO.N,/VOLTAGE REGULATED*%
X167380000Y-111400000D02*
X159700000Y-111400000D01*
X155200000Y-97000000D02*
X154122971Y-95922971D01*
X159200000Y-110900000D02*
X159200000Y-97901708D01*
X158298292Y-97000000D02*
X155200000Y-97000000D01*
X155151000Y-56618080D02*
X155151000Y-55540364D01*
X159700000Y-111400000D02*
X159200000Y-110900000D01*
X159200000Y-97901708D02*
X158298292Y-97000000D01*
X154122971Y-95922971D02*
X154122971Y-65335665D01*
X154122971Y-65335665D02*
X157550000Y-61908636D01*
X157550000Y-61908636D02*
X157550000Y-59017080D01*
X157550000Y-59017080D02*
X155151000Y-56618080D01*
X155151000Y-55540364D02*
X156800000Y-53891364D01*
X156800000Y-51791364D02*
X158902000Y-49689364D01*
X156800000Y-53891364D02*
X156800000Y-51791364D01*
%TO.N,/GPIO8 SDA*%
X158270000Y-60480000D02*
X158300000Y-60450000D01*
X158300000Y-60450000D02*
X158300000Y-58775716D01*
X156919700Y-57395416D02*
X156919700Y-56470300D01*
X158300000Y-58775716D02*
X156919700Y-57395416D01*
X169669991Y-112099000D02*
X167845991Y-110275000D01*
X166490009Y-110699000D02*
X160599000Y-110699000D01*
X166914009Y-110275000D02*
X166490009Y-110699000D01*
X182154009Y-107735000D02*
X180093000Y-109796009D01*
X183745000Y-104905000D02*
X183745000Y-106785991D01*
X155490364Y-96299000D02*
X154823971Y-95632607D01*
X183745000Y-106785991D02*
X182795991Y-107735000D01*
X179501000Y-112099000D02*
X169669991Y-112099000D01*
X182795991Y-107735000D02*
X182154009Y-107735000D01*
X182620000Y-103780000D02*
X183745000Y-104905000D01*
X158588656Y-96299000D02*
X155490364Y-96299000D01*
X180093000Y-109796009D02*
X180093000Y-111507000D01*
X180093000Y-111507000D02*
X179501000Y-112099000D01*
X167845991Y-110275000D02*
X166914009Y-110275000D01*
X160599000Y-110699000D02*
X159901000Y-110001000D01*
X159901000Y-110001000D02*
X159901000Y-97611344D01*
X154823971Y-95632607D02*
X154823971Y-65626029D01*
X159901000Y-97611344D02*
X158588656Y-96299000D01*
X154823971Y-65626029D02*
X158300000Y-62150000D01*
X158300000Y-62150000D02*
X158300000Y-60510000D01*
X158300000Y-60510000D02*
X158270000Y-60480000D01*
%TO.N,GND*%
X166792500Y-43800000D02*
X166792500Y-49419400D01*
X166792500Y-49419400D02*
X167349700Y-49976600D01*
X159250000Y-84160000D02*
X160351000Y-83059000D01*
X160351000Y-83059000D02*
X160351000Y-58802096D01*
X166426821Y-108860000D02*
X160602000Y-103035179D01*
X160602000Y-97320980D02*
X157481020Y-94200000D01*
X157481020Y-94200000D02*
X157200000Y-94200000D01*
X167380000Y-108860000D02*
X166426821Y-108860000D01*
X160351000Y-58802096D02*
X157204204Y-55655300D01*
X157204204Y-55655300D02*
X156919700Y-55655300D01*
X160602000Y-103035179D02*
X160602000Y-97320980D01*
D29*
%TO.N,/GPIO5 A5 MISO*%
X175327200Y-73962800D02*
X175327200Y-74099400D01*
D28*
X175327200Y-73962800D02*
X177267200Y-73962800D01*
X177267200Y-73962800D02*
X178980000Y-72250000D01*
%TO.N,/GPIO4 A4 SCK*%
X164699000Y-69301000D02*
X164154000Y-69846000D01*
X192600000Y-54013100D02*
X190669700Y-52082800D01*
X164154000Y-69846000D02*
X164154000Y-78344116D01*
X167979627Y-103780000D02*
X167380000Y-103780000D01*
X164154000Y-78344116D02*
X165183728Y-79373844D01*
X192600000Y-55655300D02*
X192600000Y-54013100D01*
X165183728Y-79373844D02*
X165183728Y-89783728D01*
X182971364Y-52520000D02*
X166190364Y-69301000D01*
X165099000Y-69301000D02*
X164699000Y-69301000D01*
X166190364Y-69301000D02*
X165109636Y-69301000D01*
X165183728Y-89783728D02*
X170099000Y-94699000D01*
X170099000Y-101660627D02*
X167979627Y-103780000D01*
X165104318Y-69295682D02*
X165099000Y-69301000D01*
X190750000Y-52520000D02*
X182971364Y-52520000D01*
X170099000Y-94699000D02*
X170099000Y-101660627D01*
X165109636Y-69301000D02*
X165104318Y-69295682D01*
%TO.N,/GPIO3 A3*%
X172150000Y-39500000D02*
X173487200Y-38162800D01*
X163080728Y-99280728D02*
X163080728Y-80244936D01*
X162500000Y-51941364D02*
X162051000Y-51492364D01*
X167380000Y-101240000D02*
X165040000Y-101240000D01*
X163080728Y-80244936D02*
X162051000Y-79215208D01*
X162051000Y-44149000D02*
X165787200Y-40412800D01*
X173487200Y-38162800D02*
X174512200Y-38162800D01*
X171787200Y-40412800D02*
X172150000Y-40050000D01*
X165040000Y-101240000D02*
X163080728Y-99280728D01*
X162051000Y-62774908D02*
X162500000Y-62325908D01*
X162500000Y-62325908D02*
X162500000Y-51941364D01*
X165787200Y-40412800D02*
X171787200Y-40412800D01*
X162051000Y-51492364D02*
X162051000Y-44149000D01*
X172150000Y-40050000D02*
X172150000Y-39500000D01*
X162051000Y-79215208D02*
X162051000Y-62774908D01*
%TO.N,/GPIO6 MOSI*%
X158407500Y-103500000D02*
X158407500Y-105367500D01*
X182020373Y-108860000D02*
X180794000Y-110086373D01*
X182620000Y-108860000D02*
X182620000Y-108875058D01*
X158375000Y-112175000D02*
X158375000Y-105400000D01*
X182604942Y-108860000D02*
X182020373Y-108860000D01*
X182620000Y-108875058D02*
X182604942Y-108860000D01*
X179791364Y-112800000D02*
X159000000Y-112800000D01*
X180794000Y-111797364D02*
X179791364Y-112800000D01*
X159000000Y-112800000D02*
X158375000Y-112175000D01*
X158407500Y-105367500D02*
X158375000Y-105400000D01*
X180794000Y-110086373D02*
X180794000Y-111797364D01*
%TO.N,/GPIO7 SS*%
X157000000Y-88547500D02*
X157000000Y-87225000D01*
X159250000Y-84975000D02*
X159296500Y-84928500D01*
X159250000Y-84975000D02*
X160400000Y-86125000D01*
X166255000Y-106785991D02*
X167204009Y-107735000D01*
X157000000Y-87225000D02*
X159250000Y-84975000D01*
X160400000Y-87724208D02*
X160399000Y-87725208D01*
X160400000Y-86125000D02*
X160400000Y-87724208D01*
X168505000Y-109942645D02*
X169960355Y-111398000D01*
D29*
X159412500Y-84812500D02*
X159250000Y-84975000D01*
D28*
X161678728Y-101670092D02*
X166255000Y-106246364D01*
X167845991Y-107735000D02*
X168505000Y-108394009D01*
X179002000Y-111398000D02*
X179392000Y-111008000D01*
X160399000Y-89369792D02*
X161678728Y-90649520D01*
X166255000Y-106246364D02*
X166255000Y-106785991D01*
X182577645Y-106320000D02*
X182620000Y-106320000D01*
X179392000Y-111008000D02*
X179392000Y-109505645D01*
X161678728Y-90649520D02*
X161678728Y-101670092D01*
X169960355Y-111398000D02*
X179002000Y-111398000D01*
X160399000Y-87725208D02*
X160399000Y-89369792D01*
X179392000Y-109505645D02*
X182577645Y-106320000D01*
X168505000Y-108394009D02*
X168505000Y-109942645D01*
X167204009Y-107735000D02*
X167845991Y-107735000D01*
%TO.N,/GPIO2 A2*%
X171825000Y-54983636D02*
X163453000Y-63355636D01*
X164482728Y-96755907D02*
X166426821Y-98700000D01*
X169400000Y-43800000D02*
X167607500Y-43800000D01*
X171825000Y-48880000D02*
X171825000Y-54983636D01*
X171825000Y-48880000D02*
X171825000Y-46225000D01*
X166426821Y-98700000D02*
X167380000Y-98700000D01*
X171825000Y-46225000D02*
X169400000Y-43800000D01*
X163453000Y-78634480D02*
X164482728Y-79664208D01*
X163453000Y-63355636D02*
X163453000Y-78634480D01*
X164482728Y-79664208D02*
X164482728Y-96755907D01*
%TO.N,/GPIO1 A1*%
X165198000Y-70002000D02*
X164855000Y-70345000D01*
X164855000Y-70345000D02*
X164855000Y-78053752D01*
X172460000Y-66660000D02*
X169822728Y-66660000D01*
X165884728Y-79083480D02*
X165884728Y-89493364D01*
X167845991Y-104905000D02*
X166914009Y-104905000D01*
X166914009Y-104905000D02*
X166255000Y-104245991D01*
X169249000Y-101251991D02*
X169249000Y-97986645D01*
X166914009Y-102655000D02*
X167845991Y-102655000D01*
X170800000Y-94408636D02*
X170800000Y-101950991D01*
X165884728Y-89493364D02*
X170800000Y-94408636D01*
X167845991Y-102655000D02*
X169249000Y-101251991D01*
X170800000Y-101950991D02*
X167845991Y-104905000D01*
X166480728Y-70002000D02*
X165198000Y-70002000D01*
X166255000Y-104245991D02*
X166255000Y-103314009D01*
X169249000Y-97986645D02*
X167422355Y-96160000D01*
X164855000Y-78053752D02*
X165884728Y-79083480D01*
X167422355Y-96160000D02*
X167380000Y-96160000D01*
X166255000Y-103314009D02*
X166914009Y-102655000D01*
X169822728Y-66660000D02*
X166480728Y-70002000D01*
%TO.N,/GPIO0 A0*%
X164906364Y-100115000D02*
X163781728Y-98990364D01*
X167034232Y-97575000D02*
X167845991Y-97575000D01*
X163781728Y-79954572D02*
X162752000Y-78924844D01*
X162752000Y-78924844D02*
X162752000Y-63065272D01*
X166229616Y-96770384D02*
X167034232Y-97575000D01*
X163695900Y-54104100D02*
X164809700Y-54104100D01*
X162752000Y-63065272D02*
X163250000Y-62567272D01*
X166229616Y-94770384D02*
X166229616Y-96770384D01*
X163250000Y-54550000D02*
X163695900Y-54104100D01*
X168548000Y-98277009D02*
X168548000Y-99412991D01*
X163250000Y-62567272D02*
X163250000Y-54550000D01*
X168548000Y-99412991D02*
X167845991Y-100115000D01*
X167845991Y-97575000D02*
X168548000Y-98277009D01*
X167845991Y-100115000D02*
X164906364Y-100115000D01*
X167380000Y-93620000D02*
X166229616Y-94770384D01*
X163781728Y-98990364D02*
X163781728Y-79954572D01*
%TO.N,Net-(D1-A)*%
X175607500Y-30932500D02*
X176540000Y-30000000D01*
X175607500Y-31400000D02*
X175607500Y-30932500D01*
%TO.N,+3.6V*%
X157500000Y-99667500D02*
X157500000Y-100400000D01*
X157200000Y-103107500D02*
X157592500Y-103500000D01*
X157200000Y-99200000D02*
X157200000Y-103107500D01*
%TO.N,/GPIO20 RX*%
X177800000Y-91340000D02*
X177800000Y-88400000D01*
X177800000Y-82862004D02*
X179765496Y-84827500D01*
X177900000Y-88300000D02*
X177800000Y-88400000D01*
X177900000Y-87100000D02*
X177900000Y-88300000D01*
X182620000Y-96160000D02*
X177800000Y-91340000D01*
X179765496Y-84827500D02*
X180050000Y-84827500D01*
X177800000Y-80440000D02*
X177800000Y-82862004D01*
X180050000Y-84827500D02*
X177900000Y-86977500D01*
X177900000Y-86977500D02*
X177900000Y-87100000D01*
%TO.N,/GPIO8 SDA*%
X159250000Y-60480000D02*
X158594400Y-60480000D01*
X158270000Y-60480000D02*
X158594400Y-60480000D01*
D29*
%TO.N,/GPIO9 SCL*%
X174792500Y-31472370D02*
X174792500Y-31400000D01*
X177741000Y-30497471D02*
X177037471Y-31201000D01*
D28*
%TO.N,/GPIO21 TX*%
X189171900Y-84975000D02*
X188200000Y-85946900D01*
X190450000Y-84975000D02*
X189171900Y-84975000D01*
X187860000Y-88380000D02*
X182620000Y-93620000D01*
D29*
X182620000Y-93960000D02*
X182620000Y-93620000D01*
D28*
X189171900Y-84975000D02*
X188200000Y-84003100D01*
X188200000Y-85946900D02*
X188200000Y-88380000D01*
X188200000Y-88380000D02*
X187860000Y-88380000D01*
X188200000Y-84003100D02*
X188200000Y-80420000D01*
%TO.N,+3.3V*%
X192900000Y-58908636D02*
X195569700Y-56238936D01*
X183666800Y-70611800D02*
X192032818Y-78977818D01*
X171794700Y-42194700D02*
X171794700Y-43944100D01*
X167380000Y-106320000D02*
X167320000Y-106320000D01*
X161799000Y-52231728D02*
X161799000Y-62035544D01*
X167320000Y-106320000D02*
X162379728Y-101379728D01*
X190200000Y-50800000D02*
X189181000Y-51819000D01*
X161500000Y-88920272D02*
X161500000Y-88547500D01*
X164154000Y-68154000D02*
X164154000Y-63646000D01*
X161350000Y-79505572D02*
X161965964Y-80121536D01*
X164809700Y-56450000D02*
X166550000Y-54709700D01*
X182681000Y-51819000D02*
X165900000Y-68600000D01*
X164813954Y-68594682D02*
X164808636Y-68600000D01*
X165800000Y-52250000D02*
X163800000Y-52250000D01*
X171020000Y-76750000D02*
X171020000Y-79607500D01*
X178899700Y-77039700D02*
X179130000Y-77270000D01*
X162050000Y-43158636D02*
X161350000Y-43858636D01*
X195569700Y-52482800D02*
X193886900Y-50800000D01*
X196700000Y-79900000D02*
X196700000Y-65400000D01*
X195569700Y-56238936D02*
X195569700Y-52482800D01*
X189181000Y-51819000D02*
X182681000Y-51819000D01*
X171020000Y-79607500D02*
X172000000Y-80587500D01*
X169500000Y-74792800D02*
X169500000Y-71209508D01*
X173650000Y-54150000D02*
X173650000Y-45799400D01*
X193886900Y-50800000D02*
X190200000Y-50800000D01*
X192700000Y-80420000D02*
X196180000Y-80420000D01*
X161799000Y-62035544D02*
X161350000Y-62484544D01*
X161965964Y-80121536D02*
X161500000Y-80587500D01*
X170097708Y-70611800D02*
X183666800Y-70611800D01*
X162752000Y-51152000D02*
X162752000Y-44439364D01*
X166550000Y-53000000D02*
X165800000Y-52250000D01*
X162379728Y-89800000D02*
X161500000Y-88920272D01*
X165400000Y-68600000D02*
X165394682Y-68594682D01*
X168950000Y-36250000D02*
X171020000Y-36250000D01*
X196180000Y-80420000D02*
X196700000Y-79900000D01*
X164808636Y-68600000D02*
X164600000Y-68600000D01*
X178980000Y-76750000D02*
X171020000Y-76750000D01*
X162379728Y-101379728D02*
X162379728Y-89800000D01*
X164600000Y-68600000D02*
X164154000Y-68154000D01*
X161350000Y-51782728D02*
X161799000Y-52231728D01*
X192032818Y-78977818D02*
X192032818Y-79752818D01*
X166550000Y-54709700D02*
X166550000Y-53000000D01*
X165591364Y-41600000D02*
X171200000Y-41600000D01*
X162379728Y-87667772D02*
X162379728Y-81467228D01*
X161500000Y-88547500D02*
X161900000Y-88947500D01*
X165394682Y-68594682D02*
X164813954Y-68594682D01*
X161350000Y-43858636D02*
X161350000Y-51782728D01*
D29*
X172555900Y-43944100D02*
X171794700Y-43944100D01*
D28*
X192032818Y-79752818D02*
X192700000Y-80420000D01*
X164154000Y-63646000D02*
X173650000Y-54150000D01*
X171020000Y-36250000D02*
X178980000Y-36250000D01*
X192900000Y-61600000D02*
X192900000Y-58908636D01*
X163800000Y-52250000D02*
X162752000Y-51202000D01*
X161900000Y-88947500D02*
X161900000Y-89097500D01*
X162379728Y-81467228D02*
X161500000Y-80587500D01*
X165900000Y-68600000D02*
X165400000Y-68600000D01*
X171020000Y-76750000D02*
X171020000Y-76312800D01*
X162050000Y-43150000D02*
X162050000Y-43158636D01*
X162752000Y-51202000D02*
X162752000Y-44439364D01*
X171020000Y-76312800D02*
X169500000Y-74792800D01*
X196700000Y-65400000D02*
X192900000Y-61600000D01*
X162050000Y-43150000D02*
X168950000Y-36250000D01*
X162752000Y-44439364D02*
X165591364Y-41600000D01*
X173650000Y-45799400D02*
X171794700Y-43944100D01*
X182300000Y-80440000D02*
X179130000Y-77270000D01*
X161500000Y-88547500D02*
X162379728Y-87667772D01*
X161350000Y-62484544D02*
X161350000Y-79505572D01*
X169500000Y-71209508D02*
X170097708Y-70611800D01*
X171200000Y-41600000D02*
X171794700Y-42194700D01*
%TO.N,/GPIO10*%
X178303000Y-110697000D02*
X170250719Y-110697000D01*
X178691000Y-110309000D02*
X178303000Y-110697000D01*
X167450000Y-87077500D02*
X169700000Y-84827500D01*
X178691000Y-109215281D02*
X178691000Y-110309000D01*
X182620000Y-98700000D02*
X181495000Y-99825000D01*
X169206000Y-109652281D02*
X169206000Y-108103645D01*
X171501000Y-94118272D02*
X167450000Y-90067272D01*
X171501000Y-102241355D02*
X171501000Y-94118272D01*
X167450000Y-88400000D02*
X167450000Y-87077500D01*
X169415496Y-84827500D02*
X169700000Y-84827500D01*
X168600000Y-107497645D02*
X168600000Y-105142355D01*
X181495000Y-106411281D02*
X178691000Y-109215281D01*
X167450000Y-90067272D02*
X167450000Y-88400000D01*
X168600000Y-105142355D02*
X171501000Y-102241355D01*
X167450000Y-80440000D02*
X167450000Y-82862004D01*
X167450000Y-82862004D02*
X169415496Y-84827500D01*
X170250719Y-110697000D02*
X169206000Y-109652281D01*
X181495000Y-99825000D02*
X181495000Y-106411281D01*
X169206000Y-108103645D02*
X168600000Y-107497645D01*
%TD*%
%TA.AperFunction,Conductor*%
%TO.N,GND*%
G36*
X193591709Y-51570185D02*
G01*
X193612351Y-51586819D01*
X194063181Y-52037648D01*
X194096666Y-52098971D01*
X194099500Y-52125329D01*
X194099500Y-53095001D01*
X194099501Y-53095019D01*
X194110000Y-53197796D01*
X194110001Y-53197799D01*
X194140615Y-53290185D01*
X194165186Y-53364334D01*
X194257288Y-53513656D01*
X194381344Y-53637712D01*
X194530666Y-53729814D01*
X194697203Y-53784999D01*
X194707799Y-53786081D01*
X194772489Y-53812473D01*
X194812644Y-53869652D01*
X194819200Y-53909439D01*
X194819200Y-55876705D01*
X194799515Y-55943744D01*
X194782881Y-55964386D01*
X192317050Y-58430216D01*
X192317044Y-58430224D01*
X192267812Y-58503904D01*
X192267813Y-58503905D01*
X192234921Y-58553132D01*
X192234914Y-58553144D01*
X192178342Y-58689722D01*
X192178340Y-58689728D01*
X192149500Y-58834715D01*
X192149500Y-58834718D01*
X192149500Y-61673918D01*
X192149500Y-61673920D01*
X192149499Y-61673920D01*
X192178340Y-61818907D01*
X192178343Y-61818917D01*
X192234912Y-61955488D01*
X192234916Y-61955495D01*
X192254175Y-61984318D01*
X192254176Y-61984321D01*
X192254177Y-61984321D01*
X192317051Y-62078420D01*
X192317052Y-62078421D01*
X195913181Y-65674548D01*
X195946666Y-65735871D01*
X195949500Y-65762229D01*
X195949500Y-79537770D01*
X195940855Y-79567210D01*
X195934332Y-79597197D01*
X195930577Y-79602212D01*
X195929815Y-79604809D01*
X195913181Y-79625451D01*
X195905451Y-79633181D01*
X195844128Y-79666666D01*
X195817770Y-79669500D01*
X193808584Y-79669500D01*
X193741545Y-79649815D01*
X193703046Y-79610597D01*
X193692714Y-79593847D01*
X193692711Y-79593843D01*
X193568657Y-79469789D01*
X193568656Y-79469788D01*
X193419334Y-79377686D01*
X193252797Y-79322501D01*
X193252795Y-79322500D01*
X193150016Y-79312000D01*
X193150009Y-79312000D01*
X192907318Y-79312000D01*
X192840279Y-79292315D01*
X192794524Y-79239511D01*
X192783318Y-79188000D01*
X192783318Y-78903897D01*
X192754477Y-78758910D01*
X192754476Y-78758909D01*
X192754476Y-78758905D01*
X192741666Y-78727978D01*
X192697905Y-78622329D01*
X192697898Y-78622316D01*
X192615770Y-78499403D01*
X192615769Y-78499402D01*
X192511234Y-78394867D01*
X191316368Y-77200001D01*
X184145221Y-70028852D01*
X184145220Y-70028851D01*
X184051281Y-69966084D01*
X184022295Y-69946716D01*
X184022293Y-69946715D01*
X184022290Y-69946713D01*
X183885717Y-69890143D01*
X183885707Y-69890140D01*
X183740720Y-69861300D01*
X183740718Y-69861300D01*
X170023790Y-69861300D01*
X170023789Y-69861300D01*
X170010508Y-69863942D01*
X169997226Y-69866584D01*
X169997225Y-69866584D01*
X169878803Y-69890139D01*
X169878800Y-69890140D01*
X169878796Y-69890141D01*
X169798788Y-69923281D01*
X169798786Y-69923281D01*
X169742214Y-69946715D01*
X169713227Y-69966084D01*
X169619287Y-70028851D01*
X168917050Y-70731088D01*
X168917044Y-70731096D01*
X168867812Y-70804776D01*
X168867813Y-70804777D01*
X168834921Y-70854004D01*
X168834914Y-70854016D01*
X168778342Y-70990594D01*
X168778340Y-70990600D01*
X168749500Y-71135587D01*
X168749500Y-71135590D01*
X168749500Y-74866718D01*
X168749500Y-74866720D01*
X168749499Y-74866720D01*
X168778340Y-75011707D01*
X168778343Y-75011717D01*
X168834914Y-75148292D01*
X168867812Y-75197527D01*
X168867813Y-75197530D01*
X168917046Y-75271214D01*
X168917052Y-75271221D01*
X169722833Y-76077001D01*
X169756318Y-76138324D01*
X169756407Y-76190627D01*
X169755002Y-76197193D01*
X169744500Y-76299983D01*
X169744500Y-77200001D01*
X169744501Y-77200019D01*
X169755000Y-77302796D01*
X169755001Y-77302799D01*
X169760186Y-77318445D01*
X169810186Y-77469334D01*
X169902288Y-77618656D01*
X170026344Y-77742712D01*
X170175666Y-77834814D01*
X170184498Y-77837740D01*
X170241944Y-77877508D01*
X170268771Y-77942022D01*
X170269500Y-77955448D01*
X170269500Y-79681418D01*
X170269500Y-79681420D01*
X170269499Y-79681420D01*
X170298340Y-79826407D01*
X170298343Y-79826417D01*
X170354913Y-79962990D01*
X170354914Y-79962991D01*
X170354916Y-79962995D01*
X170382680Y-80004546D01*
X170382681Y-80004549D01*
X170437043Y-80085910D01*
X170437047Y-80085915D01*
X170813181Y-80462049D01*
X170846666Y-80523372D01*
X170849500Y-80549730D01*
X170849500Y-81162501D01*
X170849501Y-81162519D01*
X170860000Y-81265296D01*
X170860001Y-81265299D01*
X170891885Y-81361517D01*
X170915186Y-81431834D01*
X171007288Y-81581156D01*
X171131344Y-81705212D01*
X171280666Y-81797314D01*
X171447203Y-81852499D01*
X171549991Y-81863000D01*
X172450008Y-81862999D01*
X172450016Y-81862998D01*
X172450019Y-81862998D01*
X172506302Y-81857248D01*
X172552797Y-81852499D01*
X172719334Y-81797314D01*
X172868656Y-81705212D01*
X172992712Y-81581156D01*
X173084814Y-81431834D01*
X173139999Y-81265297D01*
X173150500Y-81162509D01*
X173150499Y-80012492D01*
X173139999Y-79909703D01*
X173084814Y-79743166D01*
X172992712Y-79593844D01*
X172868656Y-79469788D01*
X172719334Y-79377686D01*
X172552797Y-79322501D01*
X172552795Y-79322500D01*
X172450016Y-79312000D01*
X172450009Y-79312000D01*
X171894500Y-79312000D01*
X171827461Y-79292315D01*
X171781706Y-79239511D01*
X171770500Y-79188000D01*
X171770500Y-77955448D01*
X171790185Y-77888409D01*
X171842989Y-77842654D01*
X171855488Y-77837744D01*
X171864334Y-77834814D01*
X172013656Y-77742712D01*
X172137712Y-77618656D01*
X172174259Y-77559402D01*
X172226207Y-77512679D01*
X172279798Y-77500500D01*
X177720202Y-77500500D01*
X177787241Y-77520185D01*
X177825739Y-77559401D01*
X177862288Y-77618656D01*
X177986344Y-77742712D01*
X178135666Y-77834814D01*
X178302203Y-77889999D01*
X178404991Y-77900500D01*
X178647768Y-77900499D01*
X178714808Y-77920183D01*
X178735450Y-77936818D01*
X181113181Y-80314549D01*
X181146666Y-80375872D01*
X181149500Y-80402230D01*
X181149500Y-81162501D01*
X181149501Y-81162519D01*
X181160000Y-81265296D01*
X181160001Y-81265299D01*
X181191885Y-81361517D01*
X181215186Y-81431834D01*
X181307288Y-81581156D01*
X181431344Y-81705212D01*
X181580666Y-81797314D01*
X181747203Y-81852499D01*
X181849991Y-81863000D01*
X182750008Y-81862999D01*
X182750016Y-81862998D01*
X182750019Y-81862998D01*
X182806302Y-81857248D01*
X182852797Y-81852499D01*
X183019334Y-81797314D01*
X183168656Y-81705212D01*
X183292712Y-81581156D01*
X183384814Y-81431834D01*
X183439999Y-81265297D01*
X183450500Y-81162509D01*
X183450499Y-80012492D01*
X183439999Y-79909703D01*
X183384814Y-79743166D01*
X183292712Y-79593844D01*
X183168656Y-79469788D01*
X183019334Y-79377686D01*
X182852797Y-79322501D01*
X182852795Y-79322500D01*
X182750016Y-79312000D01*
X182750009Y-79312000D01*
X182284730Y-79312000D01*
X182217691Y-79292315D01*
X182197049Y-79275681D01*
X180284733Y-77363365D01*
X180251248Y-77302042D01*
X180249056Y-77263083D01*
X180255500Y-77200009D01*
X180255499Y-76299992D01*
X180244999Y-76197203D01*
X180189814Y-76030666D01*
X180097712Y-75881344D01*
X179973656Y-75757288D01*
X179824334Y-75665186D01*
X179657797Y-75610001D01*
X179657795Y-75610000D01*
X179555010Y-75599500D01*
X178404998Y-75599500D01*
X178404981Y-75599501D01*
X178302203Y-75610000D01*
X178302200Y-75610001D01*
X178135668Y-75665185D01*
X178135663Y-75665187D01*
X177986342Y-75757289D01*
X177862289Y-75881342D01*
X177825741Y-75940597D01*
X177773793Y-75987321D01*
X177720202Y-75999500D01*
X172279798Y-75999500D01*
X172212759Y-75979815D01*
X172174259Y-75940597D01*
X172137712Y-75881344D01*
X172013656Y-75757288D01*
X171864334Y-75665186D01*
X171697797Y-75610001D01*
X171697795Y-75610000D01*
X171595016Y-75599500D01*
X171595009Y-75599500D01*
X171419429Y-75599500D01*
X171352390Y-75579815D01*
X171331748Y-75563181D01*
X170286819Y-74518251D01*
X170253334Y-74456928D01*
X170250500Y-74430570D01*
X170250500Y-73517944D01*
X170270185Y-73450905D01*
X170322989Y-73405150D01*
X170387102Y-73394586D01*
X170444991Y-73400500D01*
X171595008Y-73400499D01*
X171697797Y-73389999D01*
X171864334Y-73334814D01*
X172013656Y-73242712D01*
X172137712Y-73118656D01*
X172229814Y-72969334D01*
X172284999Y-72802797D01*
X172295500Y-72700009D01*
X172295499Y-71799992D01*
X172284999Y-71697203D01*
X172229814Y-71530666D01*
X172229813Y-71530665D01*
X172228037Y-71525304D01*
X172225635Y-71455476D01*
X172261367Y-71395434D01*
X172323887Y-71364241D01*
X172345743Y-71362300D01*
X177654257Y-71362300D01*
X177721296Y-71381985D01*
X177767051Y-71434789D01*
X177776995Y-71503947D01*
X177771963Y-71525304D01*
X177715001Y-71697203D01*
X177715000Y-71697204D01*
X177704500Y-71799983D01*
X177704500Y-72412769D01*
X177684815Y-72479808D01*
X177668181Y-72500450D01*
X176992651Y-73175981D01*
X176931328Y-73209466D01*
X176904970Y-73212300D01*
X175253280Y-73212300D01*
X175108288Y-73241141D01*
X175108286Y-73241141D01*
X175066162Y-73258589D01*
X175036536Y-73266738D01*
X175035626Y-73266870D01*
X174952938Y-73277756D01*
X174948758Y-73279487D01*
X174936547Y-73281261D01*
X174915930Y-73278327D01*
X174894517Y-73278327D01*
X174894388Y-73279305D01*
X174886960Y-73278327D01*
X174886641Y-73278327D01*
X174886333Y-73278244D01*
X174769030Y-73262800D01*
X174712200Y-73262800D01*
X174712200Y-73352373D01*
X174692515Y-73419412D01*
X174685864Y-73427685D01*
X174686366Y-73428071D01*
X174681420Y-73434516D01*
X174681418Y-73434518D01*
X174617403Y-73517944D01*
X174585163Y-73559960D01*
X174550761Y-73643015D01*
X174506920Y-73697418D01*
X174440626Y-73719483D01*
X174372926Y-73702204D01*
X174325316Y-73651066D01*
X174312200Y-73595562D01*
X174312200Y-73262800D01*
X174312199Y-73262799D01*
X174255376Y-73262800D01*
X174138071Y-73278242D01*
X174138066Y-73278244D01*
X173992114Y-73338699D01*
X173866775Y-73434875D01*
X173770599Y-73560213D01*
X173710144Y-73706168D01*
X173702687Y-73762800D01*
X174321649Y-73762800D01*
X174333689Y-73752367D01*
X174347017Y-73750450D01*
X174358839Y-73743995D01*
X174380929Y-73745574D01*
X174402847Y-73742423D01*
X174415097Y-73748017D01*
X174428531Y-73748978D01*
X174446259Y-73762248D01*
X174466403Y-73771448D01*
X174473684Y-73782777D01*
X174484465Y-73790848D01*
X174492204Y-73811595D01*
X174504177Y-73830226D01*
X174507327Y-73852140D01*
X174508884Y-73856312D01*
X174509200Y-73865161D01*
X174509200Y-74060438D01*
X174489515Y-74127477D01*
X174436711Y-74173232D01*
X174367553Y-74183176D01*
X174322936Y-74162800D01*
X173702690Y-74162800D01*
X173702688Y-74162801D01*
X173710142Y-74219427D01*
X173710144Y-74219433D01*
X173770599Y-74365385D01*
X173866775Y-74490724D01*
X173992113Y-74586900D01*
X174138065Y-74647354D01*
X174138069Y-74647355D01*
X174255376Y-74662799D01*
X174312199Y-74662798D01*
X174312200Y-74662798D01*
X174312200Y-74330037D01*
X174331885Y-74262998D01*
X174384689Y-74217243D01*
X174453847Y-74207299D01*
X174517403Y-74236324D01*
X174550761Y-74282585D01*
X174585163Y-74365640D01*
X174686366Y-74497531D01*
X174683553Y-74499688D01*
X174709303Y-74546579D01*
X174712200Y-74573226D01*
X174712200Y-74662799D01*
X174769023Y-74662799D01*
X174886329Y-74647356D01*
X174886628Y-74647276D01*
X174887187Y-74647243D01*
X174894389Y-74646295D01*
X174894457Y-74646815D01*
X174895879Y-74646731D01*
X174901252Y-74644287D01*
X174919107Y-74645363D01*
X174936546Y-74644337D01*
X174948750Y-74646109D01*
X174952938Y-74647844D01*
X175035843Y-74658758D01*
X175036538Y-74658859D01*
X175037657Y-74659371D01*
X175066166Y-74667010D01*
X175108287Y-74684458D01*
X175108291Y-74684458D01*
X175108292Y-74684459D01*
X175253279Y-74713300D01*
X175253282Y-74713300D01*
X177341120Y-74713300D01*
X177438662Y-74693896D01*
X177486113Y-74684458D01*
X177622695Y-74627884D01*
X177683380Y-74587336D01*
X177745616Y-74545752D01*
X178854549Y-73436817D01*
X178915872Y-73403333D01*
X178942230Y-73400499D01*
X179555002Y-73400499D01*
X179555008Y-73400499D01*
X179657797Y-73389999D01*
X179824334Y-73334814D01*
X179973656Y-73242712D01*
X180097712Y-73118656D01*
X180134259Y-73059402D01*
X180186207Y-73012679D01*
X180239798Y-73000500D01*
X183951406Y-73000500D01*
X184018445Y-73020185D01*
X184039087Y-73036819D01*
X190544999Y-79542730D01*
X190578484Y-79604053D01*
X190581318Y-79630411D01*
X190581318Y-81216528D01*
X190581318Y-81216530D01*
X190581317Y-81216530D01*
X190610158Y-81361517D01*
X190610160Y-81361523D01*
X190639284Y-81431836D01*
X190666734Y-81498105D01*
X190669478Y-81502211D01*
X190669482Y-81502225D01*
X190669486Y-81502223D01*
X190748869Y-81621030D01*
X190748870Y-81621031D01*
X191524292Y-82396452D01*
X191524294Y-82396454D01*
X191547130Y-82411711D01*
X191597978Y-82445686D01*
X191647213Y-82478584D01*
X191703788Y-82502018D01*
X191783796Y-82535159D01*
X191899949Y-82558263D01*
X191919176Y-82562087D01*
X191928789Y-82564000D01*
X191928790Y-82564000D01*
X193471212Y-82564000D01*
X193568754Y-82544596D01*
X193616205Y-82535158D01*
X193752787Y-82478584D01*
X193802021Y-82445686D01*
X193875708Y-82396452D01*
X194364341Y-81907819D01*
X194425664Y-81874334D01*
X194452022Y-81871500D01*
X195825500Y-81871500D01*
X195892539Y-81891185D01*
X195938294Y-81943989D01*
X195949500Y-81995500D01*
X195949500Y-102537770D01*
X195929815Y-102604809D01*
X195913181Y-102625451D01*
X187176451Y-111362181D01*
X187115128Y-111395666D01*
X187088770Y-111398500D01*
X183914809Y-111398500D01*
X183883782Y-111389389D01*
X183852377Y-111381637D01*
X183850453Y-111379602D01*
X183847770Y-111378815D01*
X183826599Y-111354383D01*
X183804366Y-111330876D01*
X183803245Y-111327430D01*
X183802015Y-111326011D01*
X183792956Y-111297477D01*
X183792619Y-111295695D01*
X183765580Y-111124971D01*
X183753302Y-111087183D01*
X183751832Y-111079387D01*
X183754539Y-111052196D01*
X183753759Y-111024886D01*
X183757950Y-111017936D01*
X183758754Y-111009861D01*
X183775730Y-110988451D01*
X183789840Y-110965054D01*
X183798826Y-110959324D01*
X183802165Y-110955114D01*
X183809199Y-110952711D01*
X183826239Y-110941846D01*
X183830495Y-110940084D01*
X183879729Y-110907186D01*
X183953416Y-110857952D01*
X185028951Y-109782416D01*
X185111084Y-109659495D01*
X185167658Y-109522913D01*
X185196500Y-109377918D01*
X185196500Y-109230083D01*
X185196500Y-102992082D01*
X185196500Y-102992079D01*
X185167659Y-102847092D01*
X185167658Y-102847091D01*
X185167658Y-102847087D01*
X185127236Y-102749500D01*
X185111085Y-102710507D01*
X185111084Y-102710505D01*
X185060246Y-102634420D01*
X185040461Y-102604809D01*
X185028954Y-102587586D01*
X183830819Y-101389451D01*
X183797334Y-101328128D01*
X183794500Y-101301770D01*
X183794500Y-101147559D01*
X183765580Y-100964969D01*
X183708453Y-100789150D01*
X183708452Y-100789147D01*
X183679388Y-100732106D01*
X183624523Y-100624428D01*
X183604774Y-100597245D01*
X183515864Y-100474870D01*
X183515860Y-100474865D01*
X183385134Y-100344139D01*
X183385129Y-100344135D01*
X183235575Y-100235479D01*
X183235574Y-100235478D01*
X183235572Y-100235477D01*
X183182799Y-100208588D01*
X183070852Y-100151547D01*
X183070849Y-100151546D01*
X182895030Y-100094420D01*
X182882737Y-100092473D01*
X182819602Y-100062544D01*
X182782671Y-100003232D01*
X182783669Y-99933370D01*
X182822279Y-99875137D01*
X182882737Y-99847527D01*
X182884508Y-99847246D01*
X182895029Y-99845580D01*
X183070852Y-99788452D01*
X183235572Y-99704523D01*
X183385136Y-99595859D01*
X183515859Y-99465136D01*
X183624523Y-99315572D01*
X183708452Y-99150852D01*
X183765580Y-98975029D01*
X183785470Y-98849450D01*
X183794500Y-98792440D01*
X183794500Y-98607559D01*
X183765580Y-98424969D01*
X183708453Y-98249150D01*
X183708452Y-98249147D01*
X183666155Y-98166136D01*
X183624523Y-98084428D01*
X183594713Y-98043398D01*
X183515864Y-97934870D01*
X183515860Y-97934865D01*
X183385134Y-97804139D01*
X183385129Y-97804135D01*
X183235575Y-97695479D01*
X183235574Y-97695478D01*
X183235572Y-97695477D01*
X183182799Y-97668588D01*
X183070852Y-97611547D01*
X183070849Y-97611546D01*
X182895030Y-97554420D01*
X182882737Y-97552473D01*
X182819602Y-97522544D01*
X182782671Y-97463232D01*
X182783669Y-97393370D01*
X182822279Y-97335137D01*
X182882737Y-97307527D01*
X182884508Y-97307246D01*
X182895029Y-97305580D01*
X183070852Y-97248452D01*
X183235572Y-97164523D01*
X183385136Y-97055859D01*
X183515859Y-96925136D01*
X183624523Y-96775572D01*
X183708452Y-96610852D01*
X183708453Y-96610849D01*
X183765580Y-96435030D01*
X183794500Y-96252440D01*
X183794500Y-96067559D01*
X183765580Y-95884969D01*
X183708453Y-95709150D01*
X183708452Y-95709147D01*
X183670118Y-95633913D01*
X183624523Y-95544428D01*
X183575262Y-95476626D01*
X183515864Y-95394870D01*
X183515860Y-95394865D01*
X183385134Y-95264139D01*
X183385129Y-95264135D01*
X183235575Y-95155479D01*
X183235574Y-95155478D01*
X183235572Y-95155477D01*
X183182799Y-95128588D01*
X183070852Y-95071547D01*
X183070849Y-95071546D01*
X182895030Y-95014420D01*
X182882737Y-95012473D01*
X182819602Y-94982544D01*
X182782671Y-94923232D01*
X182783669Y-94853370D01*
X182822279Y-94795137D01*
X182882737Y-94767527D01*
X182884508Y-94767246D01*
X182895029Y-94765580D01*
X183070852Y-94708452D01*
X183235572Y-94624523D01*
X183385136Y-94515859D01*
X183515859Y-94385136D01*
X183624523Y-94235572D01*
X183708452Y-94070852D01*
X183728093Y-94010402D01*
X183765580Y-93895030D01*
X183794500Y-93712440D01*
X183794500Y-93558229D01*
X183814185Y-93491190D01*
X183830819Y-93470548D01*
X185605875Y-91695492D01*
X187474195Y-89827171D01*
X187535516Y-89793688D01*
X187600877Y-89797147D01*
X187647203Y-89812499D01*
X187749991Y-89823000D01*
X188650008Y-89822999D01*
X188650016Y-89822998D01*
X188650019Y-89822998D01*
X188706302Y-89817248D01*
X188752797Y-89812499D01*
X188919334Y-89757314D01*
X189068656Y-89665212D01*
X189192712Y-89541156D01*
X189284814Y-89391834D01*
X189339999Y-89225297D01*
X189350500Y-89122509D01*
X189350499Y-87972492D01*
X189350498Y-87972483D01*
X191549500Y-87972483D01*
X191549500Y-89122501D01*
X191549501Y-89122518D01*
X191560000Y-89225296D01*
X191560001Y-89225299D01*
X191615185Y-89391831D01*
X191615186Y-89391834D01*
X191707288Y-89541156D01*
X191831344Y-89665212D01*
X191980666Y-89757314D01*
X192147203Y-89812499D01*
X192249991Y-89823000D01*
X193150008Y-89822999D01*
X193150016Y-89822998D01*
X193150019Y-89822998D01*
X193206302Y-89817248D01*
X193252797Y-89812499D01*
X193419334Y-89757314D01*
X193568656Y-89665212D01*
X193692712Y-89541156D01*
X193784814Y-89391834D01*
X193839999Y-89225297D01*
X193850500Y-89122509D01*
X193850499Y-87972492D01*
X193839999Y-87869703D01*
X193784814Y-87703166D01*
X193692712Y-87553844D01*
X193568656Y-87429788D01*
X193425179Y-87341291D01*
X193419336Y-87337687D01*
X193419331Y-87337685D01*
X193414451Y-87336068D01*
X193252797Y-87282501D01*
X193252795Y-87282500D01*
X193150010Y-87272000D01*
X192249998Y-87272000D01*
X192249980Y-87272001D01*
X192147203Y-87282500D01*
X192147200Y-87282501D01*
X191980668Y-87337685D01*
X191980663Y-87337687D01*
X191831342Y-87429789D01*
X191707289Y-87553842D01*
X191615187Y-87703163D01*
X191615186Y-87703166D01*
X191560001Y-87869703D01*
X191560001Y-87869704D01*
X191560000Y-87869704D01*
X191549500Y-87972483D01*
X189350498Y-87972483D01*
X189339999Y-87869703D01*
X189284814Y-87703166D01*
X189192712Y-87553844D01*
X189068656Y-87429788D01*
X189068655Y-87429787D01*
X189009402Y-87393239D01*
X188962678Y-87341291D01*
X188950500Y-87287701D01*
X188950500Y-86309129D01*
X188970185Y-86242090D01*
X188986819Y-86221448D01*
X189446448Y-85761819D01*
X189507771Y-85728334D01*
X189534129Y-85725500D01*
X190042928Y-85725500D01*
X190090380Y-85734938D01*
X190193238Y-85777544D01*
X190310639Y-85793000D01*
X190589360Y-85792999D01*
X190589363Y-85792999D01*
X190706753Y-85777546D01*
X190706757Y-85777544D01*
X190706762Y-85777544D01*
X190852841Y-85717036D01*
X190978282Y-85620782D01*
X191074536Y-85495341D01*
X191135044Y-85349262D01*
X191145834Y-85267295D01*
X191154211Y-85236032D01*
X191171658Y-85193913D01*
X191197763Y-85062680D01*
X191200500Y-85048920D01*
X191200500Y-84901079D01*
X191171659Y-84756092D01*
X191171658Y-84756091D01*
X191171658Y-84756087D01*
X191154210Y-84713965D01*
X191146059Y-84684336D01*
X191145949Y-84683584D01*
X191135044Y-84600738D01*
X191133309Y-84596551D01*
X191131537Y-84584345D01*
X191134477Y-84563684D01*
X191134477Y-84542318D01*
X191133495Y-84542189D01*
X191134477Y-84534722D01*
X191134478Y-84534419D01*
X191134556Y-84534126D01*
X191149999Y-84416830D01*
X191150000Y-84416816D01*
X191150000Y-84360000D01*
X191060426Y-84360000D01*
X190993387Y-84340315D01*
X190985121Y-84333654D01*
X190984729Y-84334166D01*
X190978283Y-84329220D01*
X190978282Y-84329218D01*
X190852841Y-84232964D01*
X190852840Y-84232963D01*
X190852838Y-84232962D01*
X190769785Y-84198561D01*
X190715381Y-84154720D01*
X190693316Y-84088426D01*
X190710595Y-84020727D01*
X190761732Y-83973116D01*
X190817237Y-83960000D01*
X191149999Y-83960000D01*
X191149999Y-83903175D01*
X191134557Y-83785871D01*
X191134555Y-83785866D01*
X191074100Y-83639914D01*
X190977924Y-83514575D01*
X190852586Y-83418399D01*
X190706631Y-83357944D01*
X190650000Y-83350487D01*
X190650000Y-83969449D01*
X190660432Y-83981489D01*
X190662348Y-83994820D01*
X190668804Y-84006642D01*
X190667224Y-84028728D01*
X190670376Y-84050647D01*
X190664780Y-84062898D01*
X190663820Y-84076334D01*
X190650549Y-84094060D01*
X190641351Y-84114203D01*
X190630019Y-84121485D01*
X190621948Y-84132267D01*
X190601202Y-84140004D01*
X190582573Y-84151977D01*
X190560654Y-84155128D01*
X190556484Y-84156684D01*
X190547638Y-84157000D01*
X190352361Y-84157000D01*
X190285322Y-84137315D01*
X190239567Y-84084511D01*
X190229623Y-84015353D01*
X190250000Y-83970733D01*
X190250000Y-83350487D01*
X190193368Y-83357944D01*
X190047413Y-83418399D01*
X189922075Y-83514575D01*
X189825899Y-83639913D01*
X189765445Y-83785865D01*
X189765444Y-83785869D01*
X189750000Y-83903169D01*
X189750000Y-83960000D01*
X190082763Y-83960000D01*
X190093574Y-83963174D01*
X190104780Y-83961970D01*
X190126501Y-83972843D01*
X190149802Y-83979685D01*
X190157180Y-83988199D01*
X190167259Y-83993245D01*
X190179653Y-84014135D01*
X190195557Y-84032489D01*
X190197160Y-84043643D01*
X190202911Y-84053335D01*
X190202044Y-84077605D01*
X190205501Y-84101647D01*
X190200819Y-84111898D01*
X190200417Y-84123160D01*
X190186565Y-84143109D01*
X190176476Y-84165203D01*
X190165962Y-84172784D01*
X190160569Y-84180552D01*
X190130215Y-84198561D01*
X190090380Y-84215061D01*
X190042928Y-84224500D01*
X189534129Y-84224500D01*
X189467090Y-84204815D01*
X189446448Y-84188181D01*
X188986819Y-83728551D01*
X188953334Y-83667228D01*
X188950500Y-83640870D01*
X188950500Y-81847297D01*
X188970185Y-81780258D01*
X189009403Y-81741758D01*
X189068656Y-81705212D01*
X189192712Y-81581156D01*
X189284814Y-81431834D01*
X189339999Y-81265297D01*
X189350500Y-81162509D01*
X189350499Y-80012492D01*
X189339999Y-79909703D01*
X189284814Y-79743166D01*
X189192712Y-79593844D01*
X189068656Y-79469788D01*
X188919334Y-79377686D01*
X188752797Y-79322501D01*
X188752795Y-79322500D01*
X188650010Y-79312000D01*
X187749998Y-79312000D01*
X187749980Y-79312001D01*
X187647203Y-79322500D01*
X187647200Y-79322501D01*
X187480668Y-79377685D01*
X187480663Y-79377687D01*
X187331342Y-79469789D01*
X187207289Y-79593842D01*
X187115187Y-79743163D01*
X187115186Y-79743166D01*
X187060001Y-79909703D01*
X187060001Y-79909704D01*
X187060000Y-79909704D01*
X187049500Y-80012483D01*
X187049500Y-81162501D01*
X187049501Y-81162518D01*
X187060000Y-81265296D01*
X187060001Y-81265299D01*
X187091885Y-81361517D01*
X187115186Y-81431834D01*
X187207288Y-81581156D01*
X187331344Y-81705212D01*
X187390596Y-81741758D01*
X187437321Y-81793704D01*
X187449500Y-81847297D01*
X187449500Y-84077018D01*
X187449500Y-84077020D01*
X187449499Y-84077020D01*
X187478340Y-84222007D01*
X187478343Y-84222017D01*
X187534913Y-84358590D01*
X187557270Y-84392050D01*
X187617043Y-84481510D01*
X187617047Y-84481515D01*
X188022850Y-84887318D01*
X188056335Y-84948641D01*
X188051351Y-85018333D01*
X188022850Y-85062680D01*
X187617052Y-85468478D01*
X187617046Y-85468485D01*
X187572886Y-85534576D01*
X187572887Y-85534577D01*
X187534913Y-85591408D01*
X187478343Y-85727982D01*
X187478340Y-85727992D01*
X187449500Y-85872979D01*
X187449500Y-87287701D01*
X187429815Y-87354740D01*
X187390598Y-87393239D01*
X187331344Y-87429787D01*
X187207289Y-87553842D01*
X187115187Y-87703163D01*
X187115186Y-87703166D01*
X187060001Y-87869703D01*
X187060001Y-87869704D01*
X187060000Y-87869704D01*
X187049500Y-87972483D01*
X187049500Y-88077769D01*
X187029815Y-88144808D01*
X187013181Y-88165450D01*
X182769450Y-92409181D01*
X182708127Y-92442666D01*
X182681769Y-92445500D01*
X182527560Y-92445500D01*
X182344969Y-92474419D01*
X182169150Y-92531546D01*
X182169147Y-92531547D01*
X182004424Y-92615479D01*
X181854870Y-92724135D01*
X181854865Y-92724139D01*
X181724139Y-92854865D01*
X181724135Y-92854870D01*
X181615479Y-93004424D01*
X181531547Y-93169147D01*
X181531546Y-93169150D01*
X181474419Y-93344969D01*
X181445500Y-93527559D01*
X181445500Y-93624770D01*
X181425815Y-93691809D01*
X181373011Y-93737564D01*
X181303853Y-93747508D01*
X181240297Y-93718483D01*
X181233819Y-93712451D01*
X178586819Y-91065451D01*
X178553334Y-91004128D01*
X178550500Y-90977770D01*
X178550500Y-89807297D01*
X178570185Y-89740258D01*
X178609403Y-89701758D01*
X178668656Y-89665212D01*
X178792712Y-89541156D01*
X178884814Y-89391834D01*
X178939999Y-89225297D01*
X178950500Y-89122509D01*
X178950499Y-87972492D01*
X178950498Y-87972483D01*
X181149500Y-87972483D01*
X181149500Y-89122501D01*
X181149501Y-89122518D01*
X181160000Y-89225296D01*
X181160001Y-89225299D01*
X181215185Y-89391831D01*
X181215186Y-89391834D01*
X181307288Y-89541156D01*
X181431344Y-89665212D01*
X181580666Y-89757314D01*
X181747203Y-89812499D01*
X181849991Y-89823000D01*
X182750008Y-89822999D01*
X182750016Y-89822998D01*
X182750019Y-89822998D01*
X182806302Y-89817248D01*
X182852797Y-89812499D01*
X183019334Y-89757314D01*
X183168656Y-89665212D01*
X183292712Y-89541156D01*
X183384814Y-89391834D01*
X183439999Y-89225297D01*
X183450500Y-89122509D01*
X183450499Y-87972492D01*
X183439999Y-87869703D01*
X183384814Y-87703166D01*
X183292712Y-87553844D01*
X183168656Y-87429788D01*
X183025179Y-87341291D01*
X183019336Y-87337687D01*
X183019331Y-87337685D01*
X183014451Y-87336068D01*
X182852797Y-87282501D01*
X182852795Y-87282500D01*
X182750010Y-87272000D01*
X181849998Y-87272000D01*
X181849980Y-87272001D01*
X181747203Y-87282500D01*
X181747200Y-87282501D01*
X181580668Y-87337685D01*
X181580663Y-87337687D01*
X181431342Y-87429789D01*
X181307289Y-87553842D01*
X181215187Y-87703163D01*
X181215186Y-87703166D01*
X181160001Y-87869703D01*
X181160001Y-87869704D01*
X181160000Y-87869704D01*
X181149500Y-87972483D01*
X178950498Y-87972483D01*
X178939999Y-87869703D01*
X178884814Y-87703166D01*
X178792712Y-87553844D01*
X178686818Y-87447950D01*
X178672111Y-87421016D01*
X178655523Y-87395204D01*
X178654631Y-87389003D01*
X178653334Y-87386627D01*
X178650500Y-87360269D01*
X178650500Y-87339729D01*
X178670185Y-87272690D01*
X178686819Y-87252048D01*
X179378952Y-86559915D01*
X180109818Y-85829048D01*
X180171139Y-85795565D01*
X180185342Y-85793566D01*
X180185337Y-85793529D01*
X180306753Y-85777546D01*
X180306757Y-85777544D01*
X180306762Y-85777544D01*
X180452841Y-85717036D01*
X180578282Y-85620782D01*
X180674536Y-85495341D01*
X180735044Y-85349262D01*
X180750500Y-85231861D01*
X180750499Y-85122158D01*
X180759938Y-85074705D01*
X180771658Y-85046413D01*
X180785863Y-84975000D01*
X180800500Y-84901420D01*
X180800500Y-84753581D01*
X180798213Y-84742088D01*
X180791749Y-84709587D01*
X180771658Y-84608587D01*
X180745908Y-84546421D01*
X180743894Y-84539194D01*
X180744180Y-84518413D01*
X180740403Y-84489718D01*
X180749999Y-84416830D01*
X180750000Y-84416816D01*
X180750000Y-84360000D01*
X180695230Y-84360000D01*
X180671213Y-84352948D01*
X180646358Y-84349963D01*
X180635112Y-84342347D01*
X180628191Y-84340315D01*
X180616231Y-84331578D01*
X180611699Y-84327832D01*
X180528416Y-84244549D01*
X180437198Y-84183599D01*
X180432333Y-84179578D01*
X180416157Y-84155651D01*
X180397636Y-84133490D01*
X180396828Y-84127062D01*
X180393200Y-84121695D01*
X180392527Y-84092818D01*
X180388929Y-84064165D01*
X180391724Y-84058321D01*
X180391574Y-84051844D01*
X180406618Y-84027191D01*
X180419083Y-84001138D01*
X180424595Y-83997732D01*
X180427970Y-83992203D01*
X180453951Y-83979598D01*
X180478526Y-83964418D01*
X180487823Y-83963165D01*
X180490833Y-83961706D01*
X180494972Y-83962203D01*
X180511332Y-83960000D01*
X180749999Y-83960000D01*
X180749999Y-83903175D01*
X180734557Y-83785871D01*
X180734555Y-83785866D01*
X180674100Y-83639914D01*
X180577924Y-83514575D01*
X180452586Y-83418399D01*
X180306631Y-83357944D01*
X180250000Y-83350487D01*
X180250000Y-83951274D01*
X180243761Y-83972519D01*
X180242182Y-83994608D01*
X180234109Y-84005391D01*
X180230315Y-84018313D01*
X180213581Y-84032812D01*
X180200310Y-84050541D01*
X180187689Y-84055248D01*
X180177511Y-84064068D01*
X180155593Y-84067219D01*
X180134846Y-84074958D01*
X180121685Y-84072095D01*
X180108353Y-84074012D01*
X180088209Y-84064812D01*
X180066573Y-84060106D01*
X180048847Y-84046837D01*
X180044797Y-84044987D01*
X180038319Y-84038955D01*
X179886319Y-83886955D01*
X179852834Y-83825632D01*
X179850000Y-83799274D01*
X179850000Y-83350487D01*
X179793368Y-83357944D01*
X179647412Y-83418400D01*
X179647406Y-83418403D01*
X179603741Y-83451908D01*
X179538572Y-83477101D01*
X179470127Y-83463061D01*
X179440576Y-83441212D01*
X178586819Y-82587455D01*
X178553334Y-82526132D01*
X178550500Y-82499774D01*
X178550500Y-81847297D01*
X178570185Y-81780258D01*
X178609403Y-81741758D01*
X178668656Y-81705212D01*
X178792712Y-81581156D01*
X178884814Y-81431834D01*
X178939999Y-81265297D01*
X178950500Y-81162509D01*
X178950499Y-80012492D01*
X178939999Y-79909703D01*
X178884814Y-79743166D01*
X178792712Y-79593844D01*
X178668656Y-79469788D01*
X178519334Y-79377686D01*
X178352797Y-79322501D01*
X178352795Y-79322500D01*
X178250010Y-79312000D01*
X177349998Y-79312000D01*
X177349980Y-79312001D01*
X177247203Y-79322500D01*
X177247200Y-79322501D01*
X177080668Y-79377685D01*
X177080663Y-79377687D01*
X176931342Y-79469789D01*
X176807289Y-79593842D01*
X176715187Y-79743163D01*
X176715186Y-79743166D01*
X176660001Y-79909703D01*
X176660001Y-79909704D01*
X176660000Y-79909704D01*
X176649500Y-80012483D01*
X176649500Y-81162501D01*
X176649501Y-81162518D01*
X176660000Y-81265296D01*
X176660001Y-81265299D01*
X176691885Y-81361517D01*
X176715186Y-81431834D01*
X176807288Y-81581156D01*
X176931344Y-81705212D01*
X176990596Y-81741758D01*
X177037321Y-81793704D01*
X177049500Y-81847297D01*
X177049500Y-82935922D01*
X177049500Y-82935924D01*
X177049499Y-82935924D01*
X177078340Y-83080911D01*
X177078343Y-83080921D01*
X177134913Y-83217494D01*
X177134914Y-83217495D01*
X177134916Y-83217499D01*
X177158370Y-83252600D01*
X177214816Y-83337080D01*
X177217051Y-83340424D01*
X177217052Y-83340425D01*
X178758698Y-84882070D01*
X178792183Y-84943393D01*
X178787199Y-85013085D01*
X178758698Y-85057432D01*
X177317049Y-86499081D01*
X177276401Y-86559915D01*
X177276402Y-86559916D01*
X177234914Y-86622008D01*
X177178343Y-86758582D01*
X177178340Y-86758592D01*
X177149500Y-86903579D01*
X177149500Y-87226591D01*
X177129815Y-87293630D01*
X177085731Y-87332141D01*
X177086813Y-87333895D01*
X177080667Y-87337685D01*
X177080666Y-87337686D01*
X176990600Y-87393239D01*
X176931342Y-87429789D01*
X176807289Y-87553842D01*
X176715187Y-87703163D01*
X176715186Y-87703166D01*
X176660001Y-87869703D01*
X176660001Y-87869704D01*
X176660000Y-87869704D01*
X176649500Y-87972483D01*
X176649500Y-89122501D01*
X176649501Y-89122518D01*
X176660000Y-89225296D01*
X176660001Y-89225299D01*
X176715185Y-89391831D01*
X176715186Y-89391834D01*
X176807288Y-89541156D01*
X176931344Y-89665212D01*
X176990596Y-89701758D01*
X177037321Y-89753704D01*
X177049500Y-89807297D01*
X177049500Y-91413918D01*
X177049500Y-91413920D01*
X177049499Y-91413920D01*
X177078340Y-91558907D01*
X177078343Y-91558917D01*
X177134914Y-91695492D01*
X177167812Y-91744727D01*
X177167813Y-91744730D01*
X177217046Y-91818414D01*
X177217052Y-91818421D01*
X181409181Y-96010549D01*
X181442666Y-96071872D01*
X181445500Y-96098230D01*
X181445500Y-96252440D01*
X181474419Y-96435030D01*
X181531546Y-96610849D01*
X181531547Y-96610852D01*
X181615479Y-96775575D01*
X181724135Y-96925129D01*
X181724139Y-96925134D01*
X181854865Y-97055860D01*
X181854870Y-97055864D01*
X181960941Y-97132928D01*
X182004428Y-97164523D01*
X182112106Y-97219388D01*
X182169147Y-97248452D01*
X182169150Y-97248453D01*
X182209244Y-97261480D01*
X182344971Y-97305580D01*
X182355150Y-97307192D01*
X182357263Y-97307527D01*
X182420397Y-97337457D01*
X182457328Y-97396769D01*
X182456330Y-97466631D01*
X182417719Y-97524864D01*
X182357263Y-97552473D01*
X182344969Y-97554420D01*
X182169150Y-97611546D01*
X182169147Y-97611547D01*
X182004424Y-97695479D01*
X181854870Y-97804135D01*
X181854865Y-97804139D01*
X181724139Y-97934865D01*
X181724135Y-97934870D01*
X181615479Y-98084424D01*
X181531547Y-98249147D01*
X181531546Y-98249150D01*
X181474419Y-98424969D01*
X181445500Y-98607559D01*
X181445500Y-98761769D01*
X181425815Y-98828808D01*
X181409181Y-98849450D01*
X180912050Y-99346581D01*
X180912047Y-99346585D01*
X180880805Y-99393341D01*
X180880806Y-99393342D01*
X180829914Y-99469508D01*
X180773343Y-99606082D01*
X180773340Y-99606092D01*
X180744500Y-99751079D01*
X180744500Y-106049051D01*
X180724815Y-106116090D01*
X180708181Y-106136732D01*
X178108047Y-108736865D01*
X178108043Y-108736870D01*
X178065103Y-108801138D01*
X178065102Y-108801140D01*
X178025919Y-108859780D01*
X178025912Y-108859792D01*
X177969343Y-108996363D01*
X177969340Y-108996373D01*
X177940500Y-109141360D01*
X177940500Y-109822500D01*
X177920815Y-109889539D01*
X177868011Y-109935294D01*
X177816500Y-109946500D01*
X170612949Y-109946500D01*
X170545910Y-109926815D01*
X170525268Y-109910181D01*
X169992819Y-109377732D01*
X169959334Y-109316409D01*
X169956500Y-109290051D01*
X169956500Y-108029724D01*
X169927659Y-107884737D01*
X169927658Y-107884736D01*
X169927658Y-107884732D01*
X169922656Y-107872656D01*
X169871087Y-107748156D01*
X169871080Y-107748143D01*
X169788952Y-107625230D01*
X169788951Y-107625229D01*
X169684416Y-107520694D01*
X169386819Y-107223096D01*
X169353334Y-107161773D01*
X169350500Y-107135415D01*
X169350500Y-105504584D01*
X169370185Y-105437545D01*
X169386819Y-105416903D01*
X172083949Y-102719773D01*
X172083952Y-102719770D01*
X172115437Y-102672649D01*
X172166084Y-102596850D01*
X172192152Y-102533916D01*
X172222659Y-102460267D01*
X172251500Y-102315272D01*
X172251500Y-102167437D01*
X172251500Y-94044354D01*
X172251500Y-94044351D01*
X172222659Y-93899364D01*
X172222658Y-93899363D01*
X172222658Y-93899359D01*
X172220865Y-93895030D01*
X172166087Y-93762783D01*
X172166080Y-93762770D01*
X172083952Y-93639857D01*
X172032045Y-93587950D01*
X171979416Y-93535321D01*
X170188822Y-91744727D01*
X168319139Y-89875043D01*
X168285654Y-89813720D01*
X168290638Y-89744028D01*
X168332510Y-89688095D01*
X168341708Y-89681833D01*
X168368656Y-89665212D01*
X168492712Y-89541156D01*
X168584814Y-89391834D01*
X168639999Y-89225297D01*
X168650500Y-89122509D01*
X168650499Y-87972492D01*
X168650498Y-87972483D01*
X170849500Y-87972483D01*
X170849500Y-89122501D01*
X170849501Y-89122518D01*
X170860000Y-89225296D01*
X170860001Y-89225299D01*
X170915185Y-89391831D01*
X170915186Y-89391834D01*
X171007288Y-89541156D01*
X171131344Y-89665212D01*
X171280666Y-89757314D01*
X171447203Y-89812499D01*
X171549991Y-89823000D01*
X172450008Y-89822999D01*
X172450016Y-89822998D01*
X172450019Y-89822998D01*
X172506302Y-89817248D01*
X172552797Y-89812499D01*
X172719334Y-89757314D01*
X172868656Y-89665212D01*
X172992712Y-89541156D01*
X173084814Y-89391834D01*
X173139999Y-89225297D01*
X173150500Y-89122509D01*
X173150499Y-87972492D01*
X173139999Y-87869703D01*
X173084814Y-87703166D01*
X172992712Y-87553844D01*
X172868656Y-87429788D01*
X172725179Y-87341291D01*
X172719336Y-87337687D01*
X172719331Y-87337685D01*
X172714451Y-87336068D01*
X172552797Y-87282501D01*
X172552795Y-87282500D01*
X172450010Y-87272000D01*
X171549998Y-87272000D01*
X171549980Y-87272001D01*
X171447203Y-87282500D01*
X171447200Y-87282501D01*
X171280668Y-87337685D01*
X171280663Y-87337687D01*
X171131342Y-87429789D01*
X171007289Y-87553842D01*
X170915187Y-87703163D01*
X170915186Y-87703166D01*
X170860001Y-87869703D01*
X170860001Y-87869704D01*
X170860000Y-87869704D01*
X170849500Y-87972483D01*
X168650498Y-87972483D01*
X168639999Y-87869703D01*
X168584814Y-87703166D01*
X168492712Y-87553844D01*
X168368656Y-87429788D01*
X168362989Y-87425307D01*
X168364553Y-87423328D01*
X168325769Y-87380186D01*
X168314564Y-87311221D01*
X168342424Y-87247146D01*
X168349913Y-87238953D01*
X169759548Y-85829317D01*
X169820871Y-85795833D01*
X169847229Y-85792999D01*
X169889363Y-85792999D01*
X170006753Y-85777546D01*
X170006757Y-85777544D01*
X170006762Y-85777544D01*
X170152841Y-85717036D01*
X170278282Y-85620782D01*
X170374536Y-85495341D01*
X170435044Y-85349262D01*
X170450500Y-85231861D01*
X170450499Y-84901420D01*
X170450500Y-84901417D01*
X170450500Y-84753582D01*
X170450499Y-84753577D01*
X170450499Y-84718140D01*
X170450499Y-84718136D01*
X170435046Y-84600749D01*
X170435044Y-84600744D01*
X170435044Y-84600738D01*
X170435041Y-84600731D01*
X170434477Y-84598625D01*
X170434477Y-84596424D01*
X170433984Y-84592679D01*
X170434477Y-84592614D01*
X170434477Y-84542318D01*
X170433495Y-84542189D01*
X170434477Y-84534722D01*
X170434478Y-84534419D01*
X170434556Y-84534126D01*
X170449999Y-84416830D01*
X170450000Y-84416816D01*
X170450000Y-84360000D01*
X170360426Y-84360000D01*
X170338467Y-84353552D01*
X170315659Y-84351637D01*
X170302293Y-84342930D01*
X170293387Y-84340315D01*
X170284893Y-84334340D01*
X170278364Y-84329325D01*
X170278282Y-84329218D01*
X170219371Y-84284014D01*
X170219363Y-84284002D01*
X170207230Y-84273362D01*
X170178416Y-84244548D01*
X170178415Y-84244547D01*
X170178414Y-84244546D01*
X170092442Y-84187102D01*
X170047636Y-84133490D01*
X170038929Y-84064165D01*
X170069083Y-84001138D01*
X170128526Y-83964418D01*
X170161332Y-83960000D01*
X170449999Y-83960000D01*
X170449999Y-83903175D01*
X170434557Y-83785871D01*
X170434555Y-83785866D01*
X170374100Y-83639914D01*
X170277924Y-83514575D01*
X170152586Y-83418399D01*
X170006631Y-83357944D01*
X169950000Y-83350487D01*
X169950000Y-83960930D01*
X169944635Y-83979200D01*
X169944254Y-83998239D01*
X169934994Y-84012031D01*
X169930315Y-84027969D01*
X169915925Y-84040437D01*
X169905311Y-84056249D01*
X169890064Y-84062846D01*
X169877511Y-84073724D01*
X169858662Y-84076434D01*
X169841187Y-84083996D01*
X169813223Y-84082967D01*
X169808353Y-84083668D01*
X169805900Y-84083290D01*
X169803834Y-84082950D01*
X169773918Y-84077000D01*
X169767609Y-84077000D01*
X169757625Y-84075360D01*
X169734889Y-84064422D01*
X169710686Y-84057315D01*
X169696711Y-84046054D01*
X169694663Y-84045069D01*
X169693852Y-84043750D01*
X169690048Y-84040685D01*
X169586317Y-83936954D01*
X169552834Y-83875632D01*
X169550000Y-83849274D01*
X169550000Y-83350487D01*
X169493368Y-83357944D01*
X169347412Y-83418400D01*
X169347410Y-83418401D01*
X169275452Y-83473617D01*
X169210283Y-83498811D01*
X169141838Y-83484773D01*
X169112285Y-83462922D01*
X168962407Y-83313044D01*
X168236819Y-82587455D01*
X168203334Y-82526132D01*
X168200500Y-82499774D01*
X168200500Y-81878138D01*
X168220185Y-81811099D01*
X168259401Y-81772600D01*
X168368656Y-81705212D01*
X168492712Y-81581156D01*
X168584814Y-81431834D01*
X168639999Y-81265297D01*
X168650500Y-81162509D01*
X168650499Y-80012492D01*
X168639999Y-79909703D01*
X168584814Y-79743166D01*
X168492712Y-79593844D01*
X168368656Y-79469788D01*
X168219334Y-79377686D01*
X168052797Y-79322501D01*
X168052795Y-79322500D01*
X167950010Y-79312000D01*
X167049998Y-79312000D01*
X167049980Y-79312001D01*
X166947203Y-79322500D01*
X166947200Y-79322501D01*
X166798232Y-79371865D01*
X166728404Y-79374267D01*
X166668362Y-79338535D01*
X166637169Y-79276015D01*
X166635228Y-79254159D01*
X166635228Y-79009559D01*
X166606387Y-78864572D01*
X166606386Y-78864571D01*
X166606386Y-78864567D01*
X166562622Y-78758910D01*
X166549815Y-78727991D01*
X166549808Y-78727978D01*
X166467680Y-78605065D01*
X166467679Y-78605064D01*
X166363144Y-78500529D01*
X165641819Y-77779203D01*
X165608334Y-77717880D01*
X165605500Y-77691522D01*
X165605500Y-70876500D01*
X165625185Y-70809461D01*
X165677989Y-70763706D01*
X165729500Y-70752500D01*
X166554648Y-70752500D01*
X166652190Y-70733096D01*
X166699641Y-70723658D01*
X166836223Y-70667084D01*
X166896876Y-70626557D01*
X166959144Y-70584952D01*
X170097277Y-67446819D01*
X170158600Y-67413334D01*
X170184958Y-67410500D01*
X171224572Y-67410500D01*
X171291611Y-67430185D01*
X171324888Y-67461612D01*
X171400143Y-67565192D01*
X171400148Y-67565199D01*
X171554806Y-67719857D01*
X171669508Y-67803191D01*
X171731743Y-67848407D01*
X171859132Y-67913315D01*
X171926616Y-67947701D01*
X171926619Y-67947702D01*
X172030621Y-67981493D01*
X172134625Y-68015286D01*
X172234672Y-68031132D01*
X172350639Y-68049500D01*
X172350644Y-68049500D01*
X172569361Y-68049500D01*
X172674082Y-68032912D01*
X172785375Y-68015286D01*
X172993383Y-67947701D01*
X173188257Y-67848407D01*
X173287601Y-67776229D01*
X173365193Y-67719857D01*
X173365195Y-67719854D01*
X173365199Y-67719852D01*
X173519852Y-67565199D01*
X173629991Y-67413603D01*
X173685320Y-67370939D01*
X173754933Y-67364960D01*
X173816729Y-67397565D01*
X173830628Y-67413606D01*
X173856806Y-67449638D01*
X173856807Y-67449638D01*
X174562352Y-66744093D01*
X174585792Y-66831571D01*
X174644311Y-66932930D01*
X174727070Y-67015689D01*
X174828429Y-67074208D01*
X174915905Y-67097647D01*
X174210360Y-67803191D01*
X174272008Y-67847980D01*
X174466808Y-67947237D01*
X174466811Y-67947238D01*
X174674740Y-68014797D01*
X174890684Y-68049000D01*
X175109316Y-68049000D01*
X175325259Y-68014797D01*
X175533188Y-67947238D01*
X175533191Y-67947237D01*
X175727995Y-67847978D01*
X175789638Y-67803191D01*
X175789639Y-67803191D01*
X175084094Y-67097647D01*
X175171571Y-67074208D01*
X175272930Y-67015689D01*
X175355689Y-66932930D01*
X175414208Y-66831571D01*
X175437647Y-66744094D01*
X176143191Y-67449639D01*
X176143191Y-67449638D01*
X176169372Y-67413605D01*
X176224702Y-67370939D01*
X176294315Y-67364960D01*
X176356110Y-67397565D01*
X176370008Y-67413605D01*
X176480142Y-67565192D01*
X176480146Y-67565197D01*
X176634806Y-67719857D01*
X176749508Y-67803191D01*
X176811743Y-67848407D01*
X176939132Y-67913315D01*
X177006616Y-67947701D01*
X177006619Y-67947702D01*
X177110621Y-67981493D01*
X177214625Y-68015286D01*
X177314672Y-68031132D01*
X177430639Y-68049500D01*
X177430644Y-68049500D01*
X177649361Y-68049500D01*
X177754082Y-68032912D01*
X177865375Y-68015286D01*
X178073383Y-67947701D01*
X178268257Y-67848407D01*
X178367601Y-67776229D01*
X178445193Y-67719857D01*
X178445195Y-67719854D01*
X178445199Y-67719852D01*
X178599852Y-67565199D01*
X178599854Y-67565195D01*
X178599857Y-67565193D01*
X178656229Y-67487601D01*
X178728407Y-67388257D01*
X178827701Y-67193383D01*
X178895286Y-66985375D01*
X178919646Y-66831571D01*
X178929500Y-66769361D01*
X178929500Y-66550638D01*
X178903592Y-66387070D01*
X178895286Y-66334625D01*
X178861493Y-66230621D01*
X178827702Y-66126619D01*
X178827701Y-66126616D01*
X178757203Y-65988258D01*
X178728407Y-65931743D01*
X178659581Y-65837011D01*
X178599857Y-65754806D01*
X178445193Y-65600142D01*
X178268260Y-65471595D01*
X178268259Y-65471594D01*
X178268257Y-65471593D01*
X178205825Y-65439782D01*
X178073383Y-65372298D01*
X178073380Y-65372297D01*
X177865376Y-65304714D01*
X177649361Y-65270500D01*
X177649356Y-65270500D01*
X177430644Y-65270500D01*
X177430639Y-65270500D01*
X177214623Y-65304714D01*
X177006619Y-65372297D01*
X177006616Y-65372298D01*
X176811739Y-65471595D01*
X176634806Y-65600142D01*
X176480146Y-65754802D01*
X176480142Y-65754807D01*
X176370008Y-65906394D01*
X176314678Y-65949060D01*
X176245065Y-65955039D01*
X176183270Y-65922433D01*
X176169372Y-65906394D01*
X176143192Y-65870360D01*
X176143191Y-65870360D01*
X175437647Y-66575904D01*
X175414208Y-66488429D01*
X175355689Y-66387070D01*
X175272930Y-66304311D01*
X175171571Y-66245792D01*
X175084092Y-66222352D01*
X175789638Y-65516807D01*
X175789638Y-65516806D01*
X175727995Y-65472021D01*
X175727993Y-65472020D01*
X175533191Y-65372762D01*
X175533188Y-65372761D01*
X175325259Y-65305202D01*
X175109316Y-65271000D01*
X174890684Y-65271000D01*
X174674740Y-65305202D01*
X174466811Y-65372761D01*
X174466808Y-65372762D01*
X174272001Y-65472023D01*
X174210360Y-65516806D01*
X174210360Y-65516807D01*
X174915905Y-66222352D01*
X174828429Y-66245792D01*
X174727070Y-66304311D01*
X174644311Y-66387070D01*
X174585792Y-66488429D01*
X174562352Y-66575905D01*
X173856807Y-65870360D01*
X173856805Y-65870360D01*
X173830626Y-65906394D01*
X173775297Y-65949060D01*
X173705683Y-65955039D01*
X173643888Y-65922434D01*
X173629995Y-65906401D01*
X173519852Y-65754801D01*
X173365199Y-65600148D01*
X173365193Y-65600142D01*
X173188260Y-65471595D01*
X173188259Y-65471594D01*
X173188257Y-65471593D01*
X173125825Y-65439782D01*
X172993383Y-65372298D01*
X172993380Y-65372297D01*
X172785376Y-65304714D01*
X172569361Y-65270500D01*
X172569356Y-65270500D01*
X172350644Y-65270500D01*
X172350639Y-65270500D01*
X172134623Y-65304714D01*
X171926619Y-65372297D01*
X171926616Y-65372298D01*
X171731739Y-65471595D01*
X171554806Y-65600142D01*
X171400148Y-65754800D01*
X171394751Y-65762229D01*
X171324888Y-65858386D01*
X171269561Y-65901051D01*
X171224572Y-65909500D01*
X170942594Y-65909500D01*
X170875555Y-65889815D01*
X170829800Y-65837011D01*
X170819856Y-65767853D01*
X170848881Y-65704297D01*
X170854913Y-65697819D01*
X173514539Y-63038193D01*
X180977000Y-63038193D01*
X180977000Y-63296806D01*
X181017456Y-63552233D01*
X181017456Y-63552234D01*
X181097374Y-63798195D01*
X181214783Y-64028622D01*
X181294963Y-64138981D01*
X181294964Y-64138982D01*
X181981837Y-63452109D01*
X182000997Y-63498364D01*
X182077439Y-63612768D01*
X182174732Y-63710061D01*
X182289136Y-63786503D01*
X182335390Y-63805661D01*
X181648516Y-64492534D01*
X181648517Y-64492536D01*
X181758877Y-64572716D01*
X181989304Y-64690125D01*
X182235266Y-64770043D01*
X182490694Y-64810500D01*
X182749306Y-64810500D01*
X183004733Y-64770043D01*
X183004734Y-64770043D01*
X183250695Y-64690125D01*
X183481119Y-64572718D01*
X183591481Y-64492534D01*
X183591482Y-64492534D01*
X182904609Y-63805662D01*
X182950864Y-63786503D01*
X183065268Y-63710061D01*
X183162561Y-63612768D01*
X183239003Y-63498364D01*
X183258161Y-63452109D01*
X183945034Y-64138982D01*
X183945034Y-64138981D01*
X184025218Y-64028619D01*
X184142625Y-63798195D01*
X184222543Y-63552234D01*
X184222543Y-63552233D01*
X184263000Y-63296806D01*
X184263000Y-63038193D01*
X184222543Y-62782766D01*
X184222543Y-62782765D01*
X184142625Y-62536804D01*
X184025216Y-62306377D01*
X183945036Y-62196017D01*
X183945034Y-62196016D01*
X183258161Y-62882889D01*
X183239003Y-62836636D01*
X183162561Y-62722232D01*
X183065268Y-62624939D01*
X182950864Y-62548497D01*
X182904608Y-62529337D01*
X183591482Y-61842464D01*
X183591481Y-61842463D01*
X183481122Y-61762283D01*
X183250695Y-61644874D01*
X183004733Y-61564956D01*
X182749306Y-61524500D01*
X182490694Y-61524500D01*
X182235266Y-61564956D01*
X182235265Y-61564956D01*
X181989304Y-61644874D01*
X181758884Y-61762279D01*
X181648517Y-61842464D01*
X181648517Y-61842465D01*
X182335390Y-62529337D01*
X182289136Y-62548497D01*
X182174732Y-62624939D01*
X182077439Y-62722232D01*
X182000997Y-62836636D01*
X181981837Y-62882890D01*
X181294965Y-62196017D01*
X181294964Y-62196017D01*
X181214779Y-62306384D01*
X181097374Y-62536804D01*
X181017456Y-62782765D01*
X181017456Y-62782766D01*
X180977000Y-63038193D01*
X173514539Y-63038193D01*
X176647749Y-59904983D01*
X189599500Y-59904983D01*
X189599500Y-61055001D01*
X189599501Y-61055018D01*
X189610000Y-61157796D01*
X189610001Y-61157799D01*
X189665185Y-61324331D01*
X189665187Y-61324336D01*
X189684005Y-61354845D01*
X189757288Y-61473656D01*
X189881344Y-61597712D01*
X190030666Y-61689814D01*
X190197203Y-61744999D01*
X190299991Y-61755500D01*
X191200008Y-61755499D01*
X191200016Y-61755498D01*
X191200019Y-61755498D01*
X191256302Y-61749748D01*
X191302797Y-61744999D01*
X191469334Y-61689814D01*
X191618656Y-61597712D01*
X191742712Y-61473656D01*
X191834814Y-61324334D01*
X191889999Y-61157797D01*
X191900500Y-61055009D01*
X191900499Y-59904992D01*
X191889999Y-59802203D01*
X191834814Y-59635666D01*
X191742712Y-59486344D01*
X191618656Y-59362288D01*
X191469334Y-59270186D01*
X191302797Y-59215001D01*
X191302795Y-59215000D01*
X191200010Y-59204500D01*
X190299998Y-59204500D01*
X190299980Y-59204501D01*
X190197203Y-59215000D01*
X190197200Y-59215001D01*
X190030668Y-59270185D01*
X190030663Y-59270187D01*
X189881342Y-59362289D01*
X189757289Y-59486342D01*
X189665187Y-59635663D01*
X189665186Y-59635666D01*
X189610001Y-59802203D01*
X189610001Y-59802204D01*
X189610000Y-59802204D01*
X189599500Y-59904983D01*
X176647749Y-59904983D01*
X183245913Y-53306819D01*
X183307236Y-53273334D01*
X183333594Y-53270500D01*
X189544551Y-53270500D01*
X189611590Y-53290185D01*
X189657345Y-53342989D01*
X189662256Y-53355493D01*
X189664841Y-53363295D01*
X189665186Y-53364334D01*
X189757288Y-53513656D01*
X189881344Y-53637712D01*
X190030666Y-53729814D01*
X190197203Y-53784999D01*
X190299991Y-53795500D01*
X191200008Y-53795499D01*
X191200016Y-53795498D01*
X191200019Y-53795498D01*
X191251198Y-53790270D01*
X191319890Y-53803040D01*
X191351480Y-53825947D01*
X191813181Y-54287648D01*
X191846666Y-54348971D01*
X191849500Y-54375329D01*
X191849500Y-55729218D01*
X191849500Y-55729220D01*
X191849499Y-55729220D01*
X191878340Y-55874206D01*
X191878341Y-55874208D01*
X191878342Y-55874213D01*
X191895785Y-55916325D01*
X191895788Y-55916332D01*
X191903938Y-55945960D01*
X191904065Y-55946839D01*
X191914956Y-56029562D01*
X191916687Y-56033742D01*
X191918461Y-56045953D01*
X191915527Y-56066566D01*
X191915527Y-56087984D01*
X191916505Y-56088113D01*
X191915527Y-56095533D01*
X191915528Y-56095855D01*
X191915444Y-56096165D01*
X191900000Y-56213469D01*
X191900000Y-56270300D01*
X191989574Y-56270300D01*
X192056613Y-56289985D01*
X192064878Y-56296645D01*
X192065271Y-56296134D01*
X192071716Y-56301079D01*
X192071718Y-56301082D01*
X192197159Y-56397336D01*
X192197160Y-56397336D01*
X192197161Y-56397337D01*
X192280215Y-56431739D01*
X192334619Y-56475580D01*
X192356684Y-56541874D01*
X192339405Y-56609573D01*
X192288268Y-56657184D01*
X192232763Y-56670300D01*
X191900001Y-56670300D01*
X191900001Y-56727124D01*
X191915442Y-56844428D01*
X191915444Y-56844433D01*
X191975899Y-56990385D01*
X192072075Y-57115724D01*
X192197414Y-57211900D01*
X192343366Y-57272355D01*
X192343372Y-57272357D01*
X192399998Y-57279811D01*
X192400000Y-57279810D01*
X192400000Y-56660850D01*
X192389567Y-56648810D01*
X192387650Y-56635478D01*
X192381195Y-56623657D01*
X192382774Y-56601570D01*
X192379623Y-56579652D01*
X192385218Y-56567400D01*
X192386179Y-56553965D01*
X192399449Y-56536238D01*
X192408648Y-56516096D01*
X192419979Y-56508813D01*
X192428051Y-56498032D01*
X192448796Y-56490294D01*
X192467426Y-56478322D01*
X192489344Y-56475170D01*
X192493515Y-56473615D01*
X192502337Y-56473299D01*
X192697638Y-56473299D01*
X192764677Y-56492984D01*
X192810432Y-56545788D01*
X192820376Y-56614946D01*
X192800000Y-56659563D01*
X192800000Y-57279810D01*
X192800001Y-57279811D01*
X192856627Y-57272357D01*
X192856633Y-57272355D01*
X193002585Y-57211900D01*
X193127924Y-57115724D01*
X193224100Y-56990386D01*
X193284554Y-56844434D01*
X193284555Y-56844430D01*
X193299999Y-56727130D01*
X193300000Y-56727116D01*
X193300000Y-56670300D01*
X192967237Y-56670300D01*
X192900198Y-56650615D01*
X192854443Y-56597811D01*
X192844499Y-56528653D01*
X192873524Y-56465097D01*
X192919785Y-56431739D01*
X192962012Y-56414248D01*
X193002841Y-56397336D01*
X193128282Y-56301082D01*
X193128283Y-56301079D01*
X193134729Y-56296134D01*
X193136860Y-56298911D01*
X193184068Y-56273134D01*
X193210426Y-56270300D01*
X193299999Y-56270300D01*
X193299999Y-56213477D01*
X193284555Y-56096171D01*
X193284475Y-56095869D01*
X193284441Y-56095303D01*
X193283495Y-56088112D01*
X193284014Y-56088043D01*
X193283930Y-56086618D01*
X193281487Y-56081248D01*
X193282563Y-56063394D01*
X193281537Y-56045954D01*
X193283309Y-56033749D01*
X193285044Y-56029562D01*
X193295951Y-55946706D01*
X193296060Y-55945959D01*
X193296572Y-55944841D01*
X193304211Y-55916332D01*
X193321658Y-55874213D01*
X193344759Y-55758080D01*
X193350500Y-55729220D01*
X193350500Y-53939179D01*
X193321659Y-53794192D01*
X193321658Y-53794191D01*
X193321658Y-53794187D01*
X193317852Y-53784998D01*
X193265087Y-53657611D01*
X193265080Y-53657598D01*
X193182952Y-53534685D01*
X193147354Y-53499087D01*
X193078416Y-53430149D01*
X191936818Y-52288550D01*
X191903333Y-52227227D01*
X191900499Y-52200869D01*
X191900499Y-51944998D01*
X191900498Y-51944981D01*
X191889999Y-51842203D01*
X191889998Y-51842200D01*
X191857794Y-51745016D01*
X191847351Y-51713503D01*
X191844950Y-51643676D01*
X191880682Y-51583634D01*
X191943202Y-51552441D01*
X191965058Y-51550500D01*
X193524670Y-51550500D01*
X193591709Y-51570185D01*
G37*
%TD.AperFunction*%
%TA.AperFunction,Conductor*%
G36*
X158028627Y-51726617D02*
G01*
X158084561Y-51768488D01*
X158108978Y-51833953D01*
X158108652Y-51855401D01*
X158099500Y-51944981D01*
X158099500Y-53095001D01*
X158099501Y-53095018D01*
X158110000Y-53197796D01*
X158110001Y-53197799D01*
X158140615Y-53290185D01*
X158165186Y-53364334D01*
X158257288Y-53513656D01*
X158381344Y-53637712D01*
X158530666Y-53729814D01*
X158697203Y-53784999D01*
X158799991Y-53795500D01*
X159700008Y-53795499D01*
X159700016Y-53795498D01*
X159700019Y-53795498D01*
X159775670Y-53787770D01*
X159802797Y-53784999D01*
X159969334Y-53729814D01*
X160118656Y-53637712D01*
X160242712Y-53513656D01*
X160334814Y-53364334D01*
X160389999Y-53197797D01*
X160400500Y-53095009D01*
X160400499Y-52074968D01*
X160402653Y-52067632D01*
X160401395Y-52060093D01*
X160412357Y-52034580D01*
X160420183Y-52007930D01*
X160425961Y-52002923D01*
X160428979Y-51995900D01*
X160451996Y-51980363D01*
X160472987Y-51962175D01*
X160480554Y-51961086D01*
X160486891Y-51956810D01*
X160514653Y-51956184D01*
X160542146Y-51952231D01*
X160549101Y-51955407D01*
X160556743Y-51955235D01*
X160580438Y-51969718D01*
X160605702Y-51981256D01*
X160611330Y-51988601D01*
X160616358Y-51991674D01*
X160629091Y-52011778D01*
X160636103Y-52020928D01*
X160637679Y-52024183D01*
X160684916Y-52138223D01*
X160709152Y-52174495D01*
X160713914Y-52181622D01*
X160713917Y-52181628D01*
X160767046Y-52261142D01*
X160767052Y-52261149D01*
X161012181Y-52506277D01*
X161045666Y-52567600D01*
X161048500Y-52593958D01*
X161048500Y-61673314D01*
X161028815Y-61740353D01*
X161012181Y-61760995D01*
X160767047Y-62006128D01*
X160756694Y-62021623D01*
X160746386Y-62037052D01*
X160720307Y-62076083D01*
X160684914Y-62129051D01*
X160628343Y-62265626D01*
X160628340Y-62265636D01*
X160599500Y-62410623D01*
X160599500Y-79450270D01*
X160579815Y-79517309D01*
X160563181Y-79537951D01*
X160507289Y-79593842D01*
X160415187Y-79743163D01*
X160415186Y-79743166D01*
X160360001Y-79909703D01*
X160360001Y-79909704D01*
X160360000Y-79909704D01*
X160349500Y-80012483D01*
X160349500Y-81162501D01*
X160349501Y-81162518D01*
X160360000Y-81265296D01*
X160360001Y-81265299D01*
X160391885Y-81361517D01*
X160415186Y-81431834D01*
X160507288Y-81581156D01*
X160631344Y-81705212D01*
X160780666Y-81797314D01*
X160947203Y-81852499D01*
X161049991Y-81863000D01*
X161505228Y-81862999D01*
X161572267Y-81882683D01*
X161618022Y-81935487D01*
X161629228Y-81986999D01*
X161629228Y-87148000D01*
X161626677Y-87156685D01*
X161627966Y-87165647D01*
X161616987Y-87189687D01*
X161609543Y-87215039D01*
X161602702Y-87220966D01*
X161598941Y-87229203D01*
X161576706Y-87243492D01*
X161556739Y-87260794D01*
X161546224Y-87263081D01*
X161540163Y-87266977D01*
X161505228Y-87272000D01*
X161274500Y-87272000D01*
X161207461Y-87252315D01*
X161161706Y-87199511D01*
X161150500Y-87148000D01*
X161150500Y-86051081D01*
X161144480Y-86020819D01*
X161144480Y-86020817D01*
X161121660Y-85906095D01*
X161121659Y-85906088D01*
X161074816Y-85793000D01*
X161068414Y-85777544D01*
X161065087Y-85769511D01*
X161065080Y-85769498D01*
X160982952Y-85646585D01*
X160957148Y-85620781D01*
X160878416Y-85542049D01*
X160015943Y-84679575D01*
X160011304Y-84672631D01*
X160007058Y-84669682D01*
X159989054Y-84639325D01*
X159988551Y-84638110D01*
X159983346Y-84622773D01*
X159976286Y-84596424D01*
X159972077Y-84580715D01*
X159957574Y-84555596D01*
X159941102Y-84487697D01*
X159942023Y-84477411D01*
X159949999Y-84416830D01*
X159950000Y-84416816D01*
X159950000Y-84360000D01*
X159860426Y-84360000D01*
X159793387Y-84340315D01*
X159785121Y-84333654D01*
X159784729Y-84334166D01*
X159778283Y-84329220D01*
X159778282Y-84329218D01*
X159652841Y-84232964D01*
X159652840Y-84232963D01*
X159652838Y-84232962D01*
X159569785Y-84198561D01*
X159515381Y-84154720D01*
X159493316Y-84088426D01*
X159510595Y-84020727D01*
X159561732Y-83973116D01*
X159617237Y-83960000D01*
X159949999Y-83960000D01*
X159949999Y-83903175D01*
X159934557Y-83785871D01*
X159934555Y-83785866D01*
X159874100Y-83639914D01*
X159777924Y-83514575D01*
X159652586Y-83418399D01*
X159506631Y-83357944D01*
X159450000Y-83350487D01*
X159450000Y-83969449D01*
X159460432Y-83981489D01*
X159462348Y-83994820D01*
X159468804Y-84006642D01*
X159467224Y-84028728D01*
X159470376Y-84050647D01*
X159464780Y-84062898D01*
X159463820Y-84076334D01*
X159450549Y-84094060D01*
X159441351Y-84114203D01*
X159430019Y-84121485D01*
X159421948Y-84132267D01*
X159401202Y-84140004D01*
X159382573Y-84151977D01*
X159360654Y-84155128D01*
X159356484Y-84156684D01*
X159347638Y-84157000D01*
X159152361Y-84157000D01*
X159085322Y-84137315D01*
X159039567Y-84084511D01*
X159029623Y-84015353D01*
X159050000Y-83970733D01*
X159050000Y-83350487D01*
X158993368Y-83357944D01*
X158847413Y-83418399D01*
X158722075Y-83514575D01*
X158625899Y-83639913D01*
X158565445Y-83785865D01*
X158565444Y-83785869D01*
X158550000Y-83903169D01*
X158550000Y-83960000D01*
X158882763Y-83960000D01*
X158949802Y-83979685D01*
X158995557Y-84032489D01*
X159005501Y-84101647D01*
X158976476Y-84165203D01*
X158930215Y-84198561D01*
X158847161Y-84232962D01*
X158832062Y-84244548D01*
X158721718Y-84329218D01*
X158721716Y-84329220D01*
X158715271Y-84334166D01*
X158713139Y-84331388D01*
X158665932Y-84357166D01*
X158639574Y-84360000D01*
X158550001Y-84360000D01*
X158550001Y-84416824D01*
X158564914Y-84530110D01*
X158554148Y-84599145D01*
X158529656Y-84633975D01*
X156417045Y-86746586D01*
X156396271Y-86777678D01*
X156387983Y-86790084D01*
X156361358Y-86829930D01*
X156334914Y-86869507D01*
X156278343Y-87006082D01*
X156278340Y-87006092D01*
X156249500Y-87151079D01*
X156249500Y-87287701D01*
X156229815Y-87354740D01*
X156190598Y-87393239D01*
X156131344Y-87429787D01*
X156007289Y-87553842D01*
X155915187Y-87703163D01*
X155915186Y-87703166D01*
X155860001Y-87869703D01*
X155860001Y-87869704D01*
X155860000Y-87869704D01*
X155849500Y-87972483D01*
X155849500Y-89122501D01*
X155849501Y-89122518D01*
X155860000Y-89225296D01*
X155860001Y-89225299D01*
X155915185Y-89391831D01*
X155915186Y-89391834D01*
X156007288Y-89541156D01*
X156131344Y-89665212D01*
X156280666Y-89757314D01*
X156447203Y-89812499D01*
X156549991Y-89823000D01*
X157450008Y-89822999D01*
X157450016Y-89822998D01*
X157450019Y-89822998D01*
X157506302Y-89817248D01*
X157552797Y-89812499D01*
X157719334Y-89757314D01*
X157868656Y-89665212D01*
X157992712Y-89541156D01*
X158084814Y-89391834D01*
X158139999Y-89225297D01*
X158150500Y-89122509D01*
X158150499Y-87972492D01*
X158139999Y-87869703D01*
X158084814Y-87703166D01*
X157992712Y-87553844D01*
X157950298Y-87511430D01*
X157916813Y-87450107D01*
X157921797Y-87380415D01*
X157950296Y-87336070D01*
X159162320Y-86124045D01*
X159223641Y-86090562D01*
X159293333Y-86095546D01*
X159337677Y-86124045D01*
X159455723Y-86242090D01*
X159613181Y-86399548D01*
X159646666Y-86460871D01*
X159649500Y-86487229D01*
X159649500Y-87635045D01*
X159648903Y-87647198D01*
X159648500Y-87651290D01*
X159648500Y-89443710D01*
X159648500Y-89443712D01*
X159648499Y-89443712D01*
X159677340Y-89588699D01*
X159677343Y-89588709D01*
X159733913Y-89725282D01*
X159733914Y-89725283D01*
X159733916Y-89725287D01*
X159755316Y-89757314D01*
X159799204Y-89822999D01*
X159816049Y-89848209D01*
X160891909Y-90924069D01*
X160925394Y-90985392D01*
X160928228Y-91011750D01*
X160928228Y-101744010D01*
X160928228Y-101744012D01*
X160928227Y-101744012D01*
X160957068Y-101888999D01*
X160957071Y-101889009D01*
X161013641Y-102025581D01*
X161013642Y-102025583D01*
X161013644Y-102025587D01*
X161026433Y-102044728D01*
X161026492Y-102044815D01*
X161026491Y-102044815D01*
X161095774Y-102148506D01*
X161095780Y-102148513D01*
X165468181Y-106520913D01*
X165501666Y-106582236D01*
X165504500Y-106608594D01*
X165504500Y-106859909D01*
X165504500Y-106859911D01*
X165504499Y-106859911D01*
X165533340Y-107004898D01*
X165533343Y-107004908D01*
X165589912Y-107141479D01*
X165589919Y-107141492D01*
X165596970Y-107152043D01*
X165596972Y-107152049D01*
X165596973Y-107152049D01*
X165672046Y-107264405D01*
X165672052Y-107264412D01*
X166417340Y-108009698D01*
X166450825Y-108071021D01*
X166445841Y-108140712D01*
X166429978Y-108170264D01*
X166375906Y-108244687D01*
X166375906Y-108244688D01*
X166292013Y-108409338D01*
X166234907Y-108585091D01*
X166206000Y-108767604D01*
X166206000Y-108952395D01*
X166234907Y-109134908D01*
X166292013Y-109310661D01*
X166375906Y-109475311D01*
X166375908Y-109475314D01*
X166429977Y-109549733D01*
X166453457Y-109615539D01*
X166437632Y-109683593D01*
X166417341Y-109710300D01*
X166345227Y-109782415D01*
X166215459Y-109912182D01*
X166154139Y-109945666D01*
X166127780Y-109948500D01*
X160961230Y-109948500D01*
X160894191Y-109928815D01*
X160873549Y-109912181D01*
X160687819Y-109726451D01*
X160654334Y-109665128D01*
X160651500Y-109638770D01*
X160651500Y-97537425D01*
X160651499Y-97537424D01*
X160639593Y-97477565D01*
X160622659Y-97392432D01*
X160568408Y-97261461D01*
X160566764Y-97256866D01*
X160483954Y-97132932D01*
X160483953Y-97132931D01*
X160483951Y-97132928D01*
X160379416Y-97028393D01*
X160076438Y-96725415D01*
X159067077Y-95716052D01*
X159067070Y-95716046D01*
X158993385Y-95666812D01*
X158993385Y-95666813D01*
X158944147Y-95633913D01*
X158807573Y-95577343D01*
X158807564Y-95577341D01*
X158769294Y-95569728D01*
X158707384Y-95537342D01*
X158672810Y-95476626D01*
X158676551Y-95406857D01*
X158695111Y-95372624D01*
X158783180Y-95257849D01*
X158783186Y-95257841D01*
X158907711Y-95042159D01*
X158907716Y-95042148D01*
X159003026Y-94812049D01*
X159067491Y-94571463D01*
X159100000Y-94324533D01*
X159100000Y-94075466D01*
X159067491Y-93828536D01*
X159003026Y-93587950D01*
X158907716Y-93357851D01*
X158907711Y-93357840D01*
X158783186Y-93142158D01*
X158783180Y-93142150D01*
X158708598Y-93044953D01*
X158708597Y-93044953D01*
X157801041Y-93952510D01*
X157776022Y-93892110D01*
X157704888Y-93785649D01*
X157614351Y-93695112D01*
X157507890Y-93623978D01*
X157447487Y-93598957D01*
X158355045Y-92691400D01*
X158257849Y-92616819D01*
X158257841Y-92616813D01*
X158042159Y-92492288D01*
X158042148Y-92492283D01*
X157812049Y-92396973D01*
X157571463Y-92332508D01*
X157324534Y-92300000D01*
X157075466Y-92300000D01*
X156828536Y-92332508D01*
X156587950Y-92396973D01*
X156357851Y-92492283D01*
X156357847Y-92492285D01*
X156142143Y-92616823D01*
X156044953Y-92691399D01*
X156044953Y-92691400D01*
X156952511Y-93598958D01*
X156892110Y-93623978D01*
X156785649Y-93695112D01*
X156695112Y-93785649D01*
X156623978Y-93892110D01*
X156598958Y-93952511D01*
X155688328Y-93041881D01*
X155680824Y-93042961D01*
X155660355Y-93033613D01*
X155638396Y-93028699D01*
X155629186Y-93019378D01*
X155617268Y-93013936D01*
X155605102Y-92995006D01*
X155589286Y-92979000D01*
X155585717Y-92964841D01*
X155579494Y-92955158D01*
X155574471Y-92920223D01*
X155574471Y-80012483D01*
X155849500Y-80012483D01*
X155849500Y-81162501D01*
X155849501Y-81162518D01*
X155860000Y-81265296D01*
X155860001Y-81265299D01*
X155891885Y-81361517D01*
X155915186Y-81431834D01*
X156007288Y-81581156D01*
X156131344Y-81705212D01*
X156280666Y-81797314D01*
X156447203Y-81852499D01*
X156549991Y-81863000D01*
X157450008Y-81862999D01*
X157450016Y-81862998D01*
X157450019Y-81862998D01*
X157506302Y-81857248D01*
X157552797Y-81852499D01*
X157719334Y-81797314D01*
X157868656Y-81705212D01*
X157992712Y-81581156D01*
X158084814Y-81431834D01*
X158139999Y-81265297D01*
X158150500Y-81162509D01*
X158150499Y-80012492D01*
X158139999Y-79909703D01*
X158084814Y-79743166D01*
X157992712Y-79593844D01*
X157868656Y-79469788D01*
X157719334Y-79377686D01*
X157552797Y-79322501D01*
X157552795Y-79322500D01*
X157450010Y-79312000D01*
X156549998Y-79312000D01*
X156549980Y-79312001D01*
X156447203Y-79322500D01*
X156447200Y-79322501D01*
X156280668Y-79377685D01*
X156280663Y-79377687D01*
X156131342Y-79469789D01*
X156007289Y-79593842D01*
X155915187Y-79743163D01*
X155915186Y-79743166D01*
X155860001Y-79909703D01*
X155860001Y-79909704D01*
X155860000Y-79909704D01*
X155849500Y-80012483D01*
X155574471Y-80012483D01*
X155574471Y-65988258D01*
X155594156Y-65921219D01*
X155610790Y-65900577D01*
X158882948Y-62628419D01*
X158882951Y-62628416D01*
X158965084Y-62505495D01*
X159021658Y-62368913D01*
X159034096Y-62306384D01*
X159050500Y-62223920D01*
X159050500Y-61879499D01*
X159070185Y-61812460D01*
X159122989Y-61766705D01*
X159174500Y-61755499D01*
X159700002Y-61755499D01*
X159700008Y-61755499D01*
X159802797Y-61744999D01*
X159969334Y-61689814D01*
X160118656Y-61597712D01*
X160242712Y-61473656D01*
X160334814Y-61324334D01*
X160389999Y-61157797D01*
X160400500Y-61055009D01*
X160400499Y-59904992D01*
X160389999Y-59802203D01*
X160334814Y-59635666D01*
X160242712Y-59486344D01*
X160118656Y-59362288D01*
X159969334Y-59270186D01*
X159802797Y-59215001D01*
X159802795Y-59215000D01*
X159700016Y-59204500D01*
X159700009Y-59204500D01*
X159174500Y-59204500D01*
X159107461Y-59184815D01*
X159061706Y-59132011D01*
X159050500Y-59080500D01*
X159050500Y-58701795D01*
X159021659Y-58556808D01*
X159021658Y-58556807D01*
X159021658Y-58556803D01*
X159020141Y-58553141D01*
X158965086Y-58420224D01*
X158903693Y-58328342D01*
X158903693Y-58328341D01*
X158903691Y-58328340D01*
X158882952Y-58297300D01*
X157706519Y-57120867D01*
X157673034Y-57059544D01*
X157670200Y-57033186D01*
X157670200Y-56396379D01*
X157641359Y-56251392D01*
X157641358Y-56251391D01*
X157641358Y-56251387D01*
X157623910Y-56209265D01*
X157615759Y-56179636D01*
X157615649Y-56178884D01*
X157604744Y-56096038D01*
X157603009Y-56091851D01*
X157601237Y-56079645D01*
X157604177Y-56058984D01*
X157604177Y-56037618D01*
X157603195Y-56037489D01*
X157604177Y-56030022D01*
X157604178Y-56029719D01*
X157604256Y-56029426D01*
X157619699Y-55912130D01*
X157619700Y-55912110D01*
X157619700Y-55855300D01*
X157530126Y-55855300D01*
X157463087Y-55835615D01*
X157454821Y-55828954D01*
X157454429Y-55829466D01*
X157447983Y-55824520D01*
X157447982Y-55824518D01*
X157322541Y-55728264D01*
X157322540Y-55728263D01*
X157322538Y-55728262D01*
X157239485Y-55693861D01*
X157185081Y-55650020D01*
X157163016Y-55583726D01*
X157180295Y-55516027D01*
X157231432Y-55468416D01*
X157286937Y-55455300D01*
X157619699Y-55455300D01*
X157619699Y-55398475D01*
X157604257Y-55281171D01*
X157604255Y-55281166D01*
X157543800Y-55135214D01*
X157447624Y-55009875D01*
X157322286Y-54913699D01*
X157176334Y-54853245D01*
X157168481Y-54851141D01*
X157169155Y-54848624D01*
X157117082Y-54825582D01*
X157078617Y-54767253D01*
X157077793Y-54697388D01*
X157109490Y-54643240D01*
X157382951Y-54369780D01*
X157465084Y-54246859D01*
X157521658Y-54110277D01*
X157543455Y-54000701D01*
X157550500Y-53965284D01*
X157550500Y-52153594D01*
X157570185Y-52086555D01*
X157586819Y-52065913D01*
X157707751Y-51944981D01*
X157897615Y-51755116D01*
X157958936Y-51721633D01*
X158028627Y-51726617D01*
G37*
%TD.AperFunction*%
%TA.AperFunction,Conductor*%
G36*
X152975674Y-96828851D02*
G01*
X152982138Y-96834870D01*
X154082133Y-97934864D01*
X155263181Y-99115912D01*
X155296666Y-99177235D01*
X155299500Y-99203593D01*
X155299500Y-100400015D01*
X155310000Y-100502795D01*
X155310001Y-100502796D01*
X155365186Y-100669335D01*
X155365187Y-100669337D01*
X155457286Y-100818651D01*
X155457289Y-100818655D01*
X155581344Y-100942710D01*
X155581348Y-100942713D01*
X155730662Y-101034812D01*
X155730664Y-101034813D01*
X155730666Y-101034814D01*
X155897203Y-101089999D01*
X155999992Y-101100500D01*
X156325500Y-101100500D01*
X156392539Y-101120185D01*
X156438294Y-101172989D01*
X156449500Y-101224500D01*
X156449500Y-103181418D01*
X156449500Y-103181420D01*
X156449499Y-103181420D01*
X156478340Y-103326407D01*
X156478343Y-103326417D01*
X156534912Y-103462988D01*
X156534920Y-103463003D01*
X156567324Y-103511497D01*
X156567325Y-103511500D01*
X156567326Y-103511500D01*
X156617049Y-103585917D01*
X156773972Y-103742840D01*
X156800852Y-103783068D01*
X156850464Y-103902841D01*
X156946718Y-104028282D01*
X157072159Y-104124536D01*
X157218238Y-104185044D01*
X157300205Y-104195834D01*
X157331467Y-104204210D01*
X157373588Y-104221658D01*
X157373592Y-104221658D01*
X157373593Y-104221659D01*
X157518580Y-104250500D01*
X157518583Y-104250500D01*
X157533000Y-104250500D01*
X157600039Y-104270185D01*
X157645794Y-104322989D01*
X157657000Y-104374500D01*
X157657000Y-104923742D01*
X157646101Y-104974576D01*
X157640174Y-104987761D01*
X157632964Y-104997159D01*
X157597860Y-105081905D01*
X157597101Y-105083596D01*
X157575530Y-105108794D01*
X157554720Y-105134618D01*
X157552907Y-105135221D01*
X157551664Y-105136674D01*
X157519885Y-105146212D01*
X157488426Y-105156683D01*
X157486574Y-105156210D01*
X157484743Y-105156760D01*
X157452870Y-105147608D01*
X157420726Y-105139404D01*
X157419422Y-105138004D01*
X157417587Y-105137477D01*
X157395715Y-105112540D01*
X157373116Y-105088266D01*
X157372633Y-105086222D01*
X157371516Y-105084949D01*
X157370100Y-105075504D01*
X157360000Y-105032762D01*
X157360000Y-104700000D01*
X157359999Y-104699999D01*
X157303176Y-104700000D01*
X157185871Y-104715442D01*
X157185866Y-104715444D01*
X157039914Y-104775899D01*
X156914575Y-104872075D01*
X156818399Y-104997413D01*
X156757944Y-105143368D01*
X156750487Y-105200000D01*
X157369449Y-105200000D01*
X157381489Y-105189567D01*
X157394817Y-105187650D01*
X157406639Y-105181195D01*
X157428729Y-105182774D01*
X157450647Y-105179623D01*
X157462897Y-105185217D01*
X157476331Y-105186178D01*
X157494059Y-105199448D01*
X157514203Y-105208648D01*
X157521484Y-105219977D01*
X157532265Y-105228048D01*
X157540004Y-105248795D01*
X157551977Y-105267426D01*
X157555127Y-105289340D01*
X157556684Y-105293512D01*
X157557000Y-105302361D01*
X157557000Y-105497638D01*
X157537315Y-105564677D01*
X157484511Y-105610432D01*
X157415353Y-105620376D01*
X157370736Y-105600000D01*
X156750490Y-105600000D01*
X156750488Y-105600001D01*
X156757942Y-105656627D01*
X156757944Y-105656633D01*
X156818399Y-105802585D01*
X156914575Y-105927924D01*
X157039913Y-106024100D01*
X157185865Y-106084554D01*
X157185869Y-106084555D01*
X157303176Y-106099999D01*
X157359999Y-106099998D01*
X157360000Y-106099998D01*
X157360000Y-105767237D01*
X157363174Y-105756425D01*
X157361970Y-105745220D01*
X157372843Y-105723498D01*
X157379685Y-105700198D01*
X157388199Y-105692819D01*
X157393245Y-105682741D01*
X157414135Y-105670346D01*
X157432489Y-105654443D01*
X157443643Y-105652839D01*
X157453335Y-105647089D01*
X157477605Y-105647955D01*
X157501647Y-105644499D01*
X157511898Y-105649180D01*
X157523160Y-105649583D01*
X157543109Y-105663434D01*
X157565203Y-105673524D01*
X157572784Y-105684037D01*
X157580552Y-105689431D01*
X157598561Y-105719785D01*
X157615061Y-105759620D01*
X157624500Y-105807072D01*
X157624500Y-108514688D01*
X157604815Y-108581727D01*
X157552011Y-108627482D01*
X157482853Y-108637426D01*
X157419297Y-108608401D01*
X157412819Y-108602369D01*
X155378502Y-106568052D01*
X155378495Y-106568046D01*
X155304810Y-106518812D01*
X155304810Y-106518813D01*
X155255572Y-106485913D01*
X155118998Y-106429343D01*
X155118988Y-106429340D01*
X154974001Y-106400500D01*
X154973999Y-106400500D01*
X152894471Y-106400500D01*
X152827432Y-106380815D01*
X152781677Y-106328011D01*
X152770471Y-106276500D01*
X152770471Y-96922564D01*
X152790156Y-96855525D01*
X152842960Y-96809770D01*
X152912118Y-96799826D01*
X152975674Y-96828851D01*
G37*
%TD.AperFunction*%
%TA.AperFunction,Conductor*%
G36*
X172603803Y-28720185D02*
G01*
X172649558Y-28772989D01*
X172659502Y-28842147D01*
X172652946Y-28867833D01*
X172606403Y-28992620D01*
X172606401Y-28992627D01*
X172600000Y-29052155D01*
X172600000Y-29750000D01*
X173624722Y-29750000D01*
X173580667Y-29826306D01*
X173550000Y-29940756D01*
X173550000Y-30059244D01*
X173580667Y-30173694D01*
X173624722Y-30250000D01*
X172600000Y-30250000D01*
X172600000Y-30947844D01*
X172606401Y-31007372D01*
X172606403Y-31007379D01*
X172656645Y-31142086D01*
X172656649Y-31142093D01*
X172742809Y-31257187D01*
X172742812Y-31257190D01*
X172857906Y-31343350D01*
X172857913Y-31343354D01*
X172992620Y-31393596D01*
X172992627Y-31393598D01*
X173052155Y-31399999D01*
X173052172Y-31400000D01*
X173850501Y-31400000D01*
X173917540Y-31419685D01*
X173963295Y-31472489D01*
X173974501Y-31524000D01*
X173974501Y-31539363D01*
X173989953Y-31656753D01*
X173989957Y-31656765D01*
X174046505Y-31793285D01*
X174053561Y-31816545D01*
X174070840Y-31903411D01*
X174070842Y-31903419D01*
X174127413Y-32039994D01*
X174127414Y-32039995D01*
X174127416Y-32039999D01*
X174149380Y-32072870D01*
X174190765Y-32134809D01*
X174209551Y-32162924D01*
X174209552Y-32162925D01*
X174730576Y-32683948D01*
X174730580Y-32683951D01*
X174853494Y-32766080D01*
X174853507Y-32766087D01*
X174990078Y-32822656D01*
X174990083Y-32822658D01*
X174990087Y-32822658D01*
X174990088Y-32822659D01*
X175135075Y-32851500D01*
X175135078Y-32851500D01*
X176423523Y-32851500D01*
X176521065Y-32832096D01*
X176568516Y-32822658D01*
X176705098Y-32766084D01*
X176757250Y-32731237D01*
X176828019Y-32683952D01*
X179774152Y-29737819D01*
X179835475Y-29704334D01*
X179861833Y-29701500D01*
X187938770Y-29701500D01*
X188005809Y-29721185D01*
X188026451Y-29737819D01*
X197512181Y-39223548D01*
X197545666Y-39284871D01*
X197548500Y-39311229D01*
X197548500Y-54238770D01*
X197528815Y-54305809D01*
X197512181Y-54326451D01*
X196531881Y-55306751D01*
X196470558Y-55340236D01*
X196400866Y-55335252D01*
X196344933Y-55293380D01*
X196320516Y-55227916D01*
X196320200Y-55219070D01*
X196320200Y-53423163D01*
X196331818Y-53370758D01*
X196334809Y-53364340D01*
X196334814Y-53364334D01*
X196389999Y-53197797D01*
X196400500Y-53095009D01*
X196400499Y-51944992D01*
X196389999Y-51842203D01*
X196334814Y-51675666D01*
X196242712Y-51526344D01*
X196118656Y-51402288D01*
X195969334Y-51310186D01*
X195802797Y-51255001D01*
X195802795Y-51255000D01*
X195700016Y-51244500D01*
X195700009Y-51244500D01*
X195444129Y-51244500D01*
X195377090Y-51224815D01*
X195356448Y-51208181D01*
X194365315Y-50217047D01*
X194365313Y-50217045D01*
X194318927Y-50186053D01*
X194291461Y-50167701D01*
X194242395Y-50134916D01*
X194242393Y-50134915D01*
X194242388Y-50134912D01*
X194105817Y-50078343D01*
X194105807Y-50078340D01*
X193960820Y-50049500D01*
X193960818Y-50049500D01*
X190126082Y-50049500D01*
X190126076Y-50049500D01*
X190097242Y-50055234D01*
X190097243Y-50055235D01*
X189981093Y-50078339D01*
X189981083Y-50078342D01*
X189901081Y-50111479D01*
X189901082Y-50111480D01*
X189844505Y-50134915D01*
X189762372Y-50189795D01*
X189721585Y-50217047D01*
X189721581Y-50217050D01*
X188906451Y-51032181D01*
X188845128Y-51065666D01*
X188818770Y-51068500D01*
X183996217Y-51068500D01*
X183929178Y-51048815D01*
X183883423Y-50996011D01*
X183873479Y-50926853D01*
X183895899Y-50871615D01*
X184025216Y-50693622D01*
X184142625Y-50463195D01*
X184222543Y-50217234D01*
X184222543Y-50217233D01*
X184263000Y-49961806D01*
X184263000Y-49703193D01*
X184222543Y-49447766D01*
X184222543Y-49447765D01*
X184142625Y-49201804D01*
X184025216Y-48971377D01*
X183945036Y-48861017D01*
X183945034Y-48861016D01*
X183258162Y-49547890D01*
X183239003Y-49501636D01*
X183162561Y-49387232D01*
X183065268Y-49289939D01*
X182950864Y-49213497D01*
X182904608Y-49194337D01*
X183591482Y-48507464D01*
X183591481Y-48507463D01*
X183481122Y-48427283D01*
X183250695Y-48309874D01*
X183004733Y-48229956D01*
X182749306Y-48189500D01*
X182490694Y-48189500D01*
X182235266Y-48229956D01*
X182235265Y-48229956D01*
X181989304Y-48309874D01*
X181758884Y-48427279D01*
X181648517Y-48507464D01*
X181648517Y-48507465D01*
X182335390Y-49194337D01*
X182289136Y-49213497D01*
X182174732Y-49289939D01*
X182077439Y-49387232D01*
X182000997Y-49501636D01*
X181981837Y-49547890D01*
X181294965Y-48861017D01*
X181294964Y-48861017D01*
X181214779Y-48971384D01*
X181097374Y-49201804D01*
X181017456Y-49447765D01*
X181017456Y-49447766D01*
X180977000Y-49703193D01*
X180977000Y-49961806D01*
X181017456Y-50217233D01*
X181017456Y-50217234D01*
X181097374Y-50463195D01*
X181214783Y-50693622D01*
X181294963Y-50803981D01*
X181294964Y-50803982D01*
X181981837Y-50117109D01*
X182000997Y-50163364D01*
X182077439Y-50277768D01*
X182174732Y-50375061D01*
X182289136Y-50451503D01*
X182335390Y-50470662D01*
X181648516Y-51157534D01*
X181648517Y-51157536D01*
X181758877Y-51237716D01*
X181899639Y-51309439D01*
X181950435Y-51357414D01*
X181967230Y-51425235D01*
X181944693Y-51491370D01*
X181931025Y-51507605D01*
X165625451Y-67813181D01*
X165598523Y-67827884D01*
X165572705Y-67844477D01*
X165566504Y-67845368D01*
X165564128Y-67846666D01*
X165537770Y-67849500D01*
X165507548Y-67849500D01*
X165483355Y-67847117D01*
X165468601Y-67844182D01*
X165468600Y-67844182D01*
X165028500Y-67844182D01*
X164961461Y-67824497D01*
X164915706Y-67771693D01*
X164904500Y-67720182D01*
X164904500Y-64008230D01*
X164924185Y-63941191D01*
X164940819Y-63920549D01*
X165228892Y-63632476D01*
X165541341Y-63320026D01*
X165602662Y-63286543D01*
X165672353Y-63291527D01*
X165728287Y-63333398D01*
X165751493Y-63388311D01*
X165777456Y-63552233D01*
X165777456Y-63552234D01*
X165857374Y-63798195D01*
X165974783Y-64028622D01*
X166054963Y-64138981D01*
X166054964Y-64138982D01*
X166741837Y-63452108D01*
X166760997Y-63498364D01*
X166837439Y-63612768D01*
X166934732Y-63710061D01*
X167049136Y-63786503D01*
X167095390Y-63805661D01*
X166408516Y-64492534D01*
X166408517Y-64492536D01*
X166518877Y-64572716D01*
X166749304Y-64690125D01*
X166995266Y-64770043D01*
X167250694Y-64810500D01*
X167509306Y-64810500D01*
X167764733Y-64770043D01*
X167764734Y-64770043D01*
X168010695Y-64690125D01*
X168241119Y-64572718D01*
X168351481Y-64492534D01*
X168351482Y-64492534D01*
X167664609Y-63805662D01*
X167710864Y-63786503D01*
X167825268Y-63710061D01*
X167922561Y-63612768D01*
X167999003Y-63498364D01*
X168018162Y-63452109D01*
X168705034Y-64138982D01*
X168705034Y-64138981D01*
X168785218Y-64028619D01*
X168902625Y-63798195D01*
X168982543Y-63552234D01*
X168982543Y-63552233D01*
X169023000Y-63296806D01*
X169023000Y-63038193D01*
X168982543Y-62782766D01*
X168982543Y-62782765D01*
X168902625Y-62536804D01*
X168785216Y-62306377D01*
X168705036Y-62196017D01*
X168705034Y-62196016D01*
X168018161Y-62882889D01*
X167999003Y-62836636D01*
X167922561Y-62722232D01*
X167825268Y-62624939D01*
X167710864Y-62548497D01*
X167664608Y-62529337D01*
X168351482Y-61842464D01*
X168351481Y-61842463D01*
X168241122Y-61762283D01*
X168010695Y-61644874D01*
X167764733Y-61564956D01*
X167600811Y-61538993D01*
X167537676Y-61509064D01*
X167500745Y-61449752D01*
X167501743Y-61379889D01*
X167532526Y-61328841D01*
X174232952Y-54628416D01*
X174300659Y-54527083D01*
X174315084Y-54505495D01*
X174371658Y-54368913D01*
X174381096Y-54321462D01*
X174400500Y-54223920D01*
X174400500Y-48770638D01*
X176785500Y-48770638D01*
X176785500Y-48989361D01*
X176819714Y-49205376D01*
X176887297Y-49413380D01*
X176887298Y-49413383D01*
X176986595Y-49608260D01*
X177115142Y-49785193D01*
X177269806Y-49939857D01*
X177435374Y-50060147D01*
X177446743Y-50068407D01*
X177574132Y-50133315D01*
X177641616Y-50167701D01*
X177641619Y-50167702D01*
X177698099Y-50186053D01*
X177849625Y-50235286D01*
X177949672Y-50251132D01*
X178065639Y-50269500D01*
X178065644Y-50269500D01*
X178284361Y-50269500D01*
X178389082Y-50252912D01*
X178500375Y-50235286D01*
X178700879Y-50170139D01*
X178708380Y-50167702D01*
X178708383Y-50167701D01*
X178716895Y-50163364D01*
X178903257Y-50068407D01*
X179063150Y-49952239D01*
X179080193Y-49939857D01*
X179080195Y-49939854D01*
X179080199Y-49939852D01*
X179234852Y-49785199D01*
X179242672Y-49774434D01*
X179350927Y-49625436D01*
X179363405Y-49608260D01*
X179417734Y-49501636D01*
X179462701Y-49413383D01*
X179530286Y-49205375D01*
X179548855Y-49088132D01*
X179564500Y-48989361D01*
X179564500Y-48770638D01*
X179533374Y-48574122D01*
X179533374Y-48574121D01*
X179530286Y-48554624D01*
X179462702Y-48346619D01*
X179462701Y-48346616D01*
X179428315Y-48279132D01*
X179363407Y-48151743D01*
X179355147Y-48140374D01*
X179234857Y-47974806D01*
X179080193Y-47820142D01*
X178903260Y-47691595D01*
X178903259Y-47691594D01*
X178903257Y-47691593D01*
X178810972Y-47644571D01*
X178708383Y-47592298D01*
X178708380Y-47592297D01*
X178500376Y-47524714D01*
X178284361Y-47490500D01*
X178284356Y-47490500D01*
X178065644Y-47490500D01*
X178065639Y-47490500D01*
X177849623Y-47524714D01*
X177641619Y-47592297D01*
X177641616Y-47592298D01*
X177446739Y-47691595D01*
X177269806Y-47820142D01*
X177115142Y-47974806D01*
X176986595Y-48151739D01*
X176887298Y-48346616D01*
X176887297Y-48346619D01*
X176819714Y-48554623D01*
X176785500Y-48770638D01*
X174400500Y-48770638D01*
X174400500Y-45725479D01*
X174371659Y-45580492D01*
X174371658Y-45580491D01*
X174371658Y-45580487D01*
X174371656Y-45580482D01*
X174315087Y-45443911D01*
X174315080Y-45443898D01*
X174232952Y-45320985D01*
X174232951Y-45320984D01*
X174128416Y-45216449D01*
X173699648Y-44787681D01*
X173198962Y-44286994D01*
X173165477Y-44225671D01*
X173168713Y-44160992D01*
X173180285Y-44125378D01*
X173180286Y-44125375D01*
X173200143Y-44000001D01*
X173214500Y-43909361D01*
X173214500Y-43690638D01*
X176785500Y-43690638D01*
X176785500Y-43909361D01*
X176819714Y-44125376D01*
X176887297Y-44333380D01*
X176887298Y-44333383D01*
X176933522Y-44424100D01*
X176983231Y-44521659D01*
X176986595Y-44528260D01*
X177115142Y-44705193D01*
X177269806Y-44859857D01*
X177435374Y-44980147D01*
X177446743Y-44988407D01*
X177574132Y-45053315D01*
X177641616Y-45087701D01*
X177641619Y-45087702D01*
X177745621Y-45121493D01*
X177849625Y-45155286D01*
X177949672Y-45171132D01*
X178065639Y-45189500D01*
X178065644Y-45189500D01*
X178284361Y-45189500D01*
X178389082Y-45172912D01*
X178500375Y-45155286D01*
X178708383Y-45087701D01*
X178903257Y-44988407D01*
X179002601Y-44916229D01*
X179080193Y-44859857D01*
X179080195Y-44859854D01*
X179080199Y-44859852D01*
X179234852Y-44705199D01*
X179234854Y-44705195D01*
X179234857Y-44705193D01*
X179302333Y-44612319D01*
X179363407Y-44528257D01*
X179462701Y-44333383D01*
X179530286Y-44125375D01*
X179550143Y-44000001D01*
X179564500Y-43909361D01*
X179564500Y-43690638D01*
X179537845Y-43522351D01*
X179530286Y-43474625D01*
X179496493Y-43370621D01*
X179462702Y-43266619D01*
X179462701Y-43266616D01*
X179423445Y-43189573D01*
X179363407Y-43071743D01*
X179317375Y-43008385D01*
X179234857Y-42894806D01*
X179080193Y-42740142D01*
X178903260Y-42611595D01*
X178903259Y-42611594D01*
X178903257Y-42611593D01*
X178840825Y-42579782D01*
X178708383Y-42512298D01*
X178708380Y-42512297D01*
X178500376Y-42444714D01*
X178284361Y-42410500D01*
X178284356Y-42410500D01*
X178065644Y-42410500D01*
X178065639Y-42410500D01*
X177849623Y-42444714D01*
X177641619Y-42512297D01*
X177641616Y-42512298D01*
X177446739Y-42611595D01*
X177269806Y-42740142D01*
X177115142Y-42894806D01*
X176986595Y-43071739D01*
X176887298Y-43266616D01*
X176887297Y-43266619D01*
X176819714Y-43474623D01*
X176785500Y-43690638D01*
X173214500Y-43690638D01*
X173187845Y-43522351D01*
X173180286Y-43474625D01*
X173146493Y-43370621D01*
X173112702Y-43266619D01*
X173112701Y-43266616D01*
X173073445Y-43189573D01*
X173013407Y-43071743D01*
X172967375Y-43008385D01*
X172884857Y-42894806D01*
X172730197Y-42740146D01*
X172730192Y-42740142D01*
X172596315Y-42642875D01*
X172553649Y-42587545D01*
X172545200Y-42542557D01*
X172545200Y-42120779D01*
X172516359Y-41975792D01*
X172516358Y-41975791D01*
X172516358Y-41975787D01*
X172516356Y-41975782D01*
X172459786Y-41839208D01*
X172400759Y-41750867D01*
X172400758Y-41750866D01*
X172395310Y-41742712D01*
X172377652Y-41716284D01*
X172257540Y-41596172D01*
X172255918Y-41594420D01*
X172241388Y-41565189D01*
X172225743Y-41536537D01*
X172225878Y-41533985D01*
X172224818Y-41531853D01*
X172227072Y-41511420D01*
X172229203Y-41471175D01*
X172229811Y-41469337D01*
X172229814Y-41469334D01*
X172284999Y-41302797D01*
X172295500Y-41200009D01*
X172295499Y-41017229D01*
X172315183Y-40950190D01*
X172331813Y-40929553D01*
X172732952Y-40528415D01*
X172760813Y-40486717D01*
X172815084Y-40405495D01*
X172858785Y-40299991D01*
X172858788Y-40299983D01*
X177704500Y-40299983D01*
X177704500Y-41200001D01*
X177704501Y-41200019D01*
X177715000Y-41302796D01*
X177715001Y-41302799D01*
X177770185Y-41469331D01*
X177770187Y-41469336D01*
X177796145Y-41511420D01*
X177862288Y-41618656D01*
X177986344Y-41742712D01*
X178135666Y-41834814D01*
X178302203Y-41889999D01*
X178404991Y-41900500D01*
X179555008Y-41900499D01*
X179657797Y-41889999D01*
X179824334Y-41834814D01*
X179973656Y-41742712D01*
X180097712Y-41618656D01*
X180189814Y-41469334D01*
X180244999Y-41302797D01*
X180255500Y-41200009D01*
X180255499Y-40299992D01*
X180254964Y-40294759D01*
X180244999Y-40197203D01*
X180244998Y-40197200D01*
X180220715Y-40123920D01*
X180189814Y-40030666D01*
X180097712Y-39881344D01*
X179973656Y-39757288D01*
X179824334Y-39665186D01*
X179657797Y-39610001D01*
X179657795Y-39610000D01*
X179555010Y-39599500D01*
X178404998Y-39599500D01*
X178404981Y-39599501D01*
X178302203Y-39610000D01*
X178302200Y-39610001D01*
X178135668Y-39665185D01*
X178135663Y-39665187D01*
X177986342Y-39757289D01*
X177862289Y-39881342D01*
X177770187Y-40030663D01*
X177770186Y-40030666D01*
X177715001Y-40197203D01*
X177715001Y-40197204D01*
X177715000Y-40197204D01*
X177704500Y-40299983D01*
X172858788Y-40299983D01*
X172871659Y-40268912D01*
X172900500Y-40123917D01*
X172900500Y-39976082D01*
X172900500Y-39862229D01*
X172920185Y-39795190D01*
X172936819Y-39774548D01*
X173761748Y-38949619D01*
X173823071Y-38916134D01*
X173849429Y-38913300D01*
X174586120Y-38913300D01*
X174731108Y-38884459D01*
X174731108Y-38884458D01*
X174731113Y-38884458D01*
X174773238Y-38867008D01*
X174802865Y-38858858D01*
X174803561Y-38858756D01*
X174886462Y-38847844D01*
X174890649Y-38846109D01*
X174902855Y-38844337D01*
X174923509Y-38847276D01*
X174944882Y-38847276D01*
X174945012Y-38846295D01*
X174952463Y-38847276D01*
X174952772Y-38847276D01*
X174953070Y-38847355D01*
X175070376Y-38862799D01*
X175127199Y-38862798D01*
X175127200Y-38862798D01*
X175127200Y-38773226D01*
X175146885Y-38706187D01*
X175153554Y-38697930D01*
X175153034Y-38697531D01*
X175191885Y-38646897D01*
X175254236Y-38565641D01*
X175288639Y-38482585D01*
X175332480Y-38428181D01*
X175398774Y-38406116D01*
X175466473Y-38423395D01*
X175514084Y-38474532D01*
X175527200Y-38530037D01*
X175527200Y-38862799D01*
X175584024Y-38862799D01*
X175701328Y-38847357D01*
X175701333Y-38847355D01*
X175847285Y-38786900D01*
X175972624Y-38690724D01*
X176068800Y-38565386D01*
X176129255Y-38419431D01*
X176136712Y-38362800D01*
X175517749Y-38362800D01*
X175505710Y-38373232D01*
X175492377Y-38375148D01*
X175480554Y-38381605D01*
X175458467Y-38380024D01*
X175436552Y-38383176D01*
X175424299Y-38377580D01*
X175410863Y-38376619D01*
X175393137Y-38363349D01*
X175372996Y-38354151D01*
X175365713Y-38342818D01*
X175354930Y-38334746D01*
X175347192Y-38314000D01*
X175335222Y-38295373D01*
X175332069Y-38273450D01*
X175330515Y-38269281D01*
X175330199Y-38260461D01*
X175330199Y-38065160D01*
X175349884Y-37998122D01*
X175402688Y-37952367D01*
X175471846Y-37942423D01*
X175516465Y-37962800D01*
X176136710Y-37962800D01*
X176136711Y-37962798D01*
X176129257Y-37906172D01*
X176129255Y-37906166D01*
X176068800Y-37760214D01*
X175972624Y-37634875D01*
X175847286Y-37538699D01*
X175701334Y-37478245D01*
X175701330Y-37478244D01*
X175584030Y-37462800D01*
X175527200Y-37462800D01*
X175527200Y-37795562D01*
X175507515Y-37862601D01*
X175454711Y-37908356D01*
X175385553Y-37918300D01*
X175321997Y-37889275D01*
X175288639Y-37843015D01*
X175268983Y-37795562D01*
X175254236Y-37759959D01*
X175157982Y-37634518D01*
X175157979Y-37634516D01*
X175153034Y-37628071D01*
X175155775Y-37625967D01*
X175129972Y-37578443D01*
X175127200Y-37552373D01*
X175127200Y-37462800D01*
X175127199Y-37462799D01*
X175070376Y-37462800D01*
X174953071Y-37478242D01*
X174952769Y-37478324D01*
X174952202Y-37478357D01*
X174945011Y-37479304D01*
X174944942Y-37478784D01*
X174943517Y-37478868D01*
X174938146Y-37481312D01*
X174920280Y-37480235D01*
X174902852Y-37481261D01*
X174890642Y-37479487D01*
X174886462Y-37477756D01*
X174803742Y-37466865D01*
X174802857Y-37466737D01*
X174801746Y-37466227D01*
X174773230Y-37458587D01*
X174755722Y-37451335D01*
X174731113Y-37441142D01*
X174731111Y-37441141D01*
X174731107Y-37441140D01*
X174586120Y-37412300D01*
X174586118Y-37412300D01*
X173561117Y-37412300D01*
X173413282Y-37412300D01*
X173413280Y-37412300D01*
X173268292Y-37441140D01*
X173268282Y-37441143D01*
X173131711Y-37497712D01*
X173131698Y-37497719D01*
X173008784Y-37579848D01*
X173008780Y-37579851D01*
X171567050Y-39021580D01*
X171567044Y-39021588D01*
X171517812Y-39095268D01*
X171517813Y-39095269D01*
X171484921Y-39144496D01*
X171484914Y-39144508D01*
X171428342Y-39281086D01*
X171428340Y-39281092D01*
X171399500Y-39426079D01*
X171399500Y-39475500D01*
X171379815Y-39542539D01*
X171327011Y-39588294D01*
X171275500Y-39599500D01*
X170444998Y-39599500D01*
X170444980Y-39599501D01*
X170342203Y-39610000D01*
X170342200Y-39610001D01*
X170203369Y-39656006D01*
X170164365Y-39662300D01*
X166898429Y-39662300D01*
X166831390Y-39642615D01*
X166785635Y-39589811D01*
X166775691Y-39520653D01*
X166804716Y-39457097D01*
X166810748Y-39450619D01*
X169224548Y-37036819D01*
X169285871Y-37003334D01*
X169312229Y-37000500D01*
X169760202Y-37000500D01*
X169827241Y-37020185D01*
X169865739Y-37059401D01*
X169902288Y-37118656D01*
X170026344Y-37242712D01*
X170175666Y-37334814D01*
X170342203Y-37389999D01*
X170444991Y-37400500D01*
X171595008Y-37400499D01*
X171697797Y-37389999D01*
X171864334Y-37334814D01*
X172013656Y-37242712D01*
X172137712Y-37118656D01*
X172174259Y-37059402D01*
X172226207Y-37012679D01*
X172279798Y-37000500D01*
X177720202Y-37000500D01*
X177787241Y-37020185D01*
X177825739Y-37059401D01*
X177862288Y-37118656D01*
X177986344Y-37242712D01*
X178135666Y-37334814D01*
X178302203Y-37389999D01*
X178404991Y-37400500D01*
X179555008Y-37400499D01*
X179657797Y-37389999D01*
X179824334Y-37334814D01*
X179973656Y-37242712D01*
X180097712Y-37118656D01*
X180189814Y-36969334D01*
X180244999Y-36802797D01*
X180255500Y-36700009D01*
X180255499Y-35799992D01*
X180244999Y-35697203D01*
X180189814Y-35530666D01*
X180097712Y-35381344D01*
X179973656Y-35257288D01*
X179824334Y-35165186D01*
X179657797Y-35110001D01*
X179657795Y-35110000D01*
X179555010Y-35099500D01*
X178404998Y-35099500D01*
X178404981Y-35099501D01*
X178302203Y-35110000D01*
X178302200Y-35110001D01*
X178135668Y-35165185D01*
X178135663Y-35165187D01*
X177986342Y-35257289D01*
X177862289Y-35381342D01*
X177825741Y-35440597D01*
X177773793Y-35487321D01*
X177720202Y-35499500D01*
X172279798Y-35499500D01*
X172212759Y-35479815D01*
X172174259Y-35440597D01*
X172137712Y-35381344D01*
X172013656Y-35257288D01*
X171864334Y-35165186D01*
X171697797Y-35110001D01*
X171697795Y-35110000D01*
X171595010Y-35099500D01*
X170444998Y-35099500D01*
X170444981Y-35099501D01*
X170342203Y-35110000D01*
X170342200Y-35110001D01*
X170175668Y-35165185D01*
X170175663Y-35165187D01*
X170026342Y-35257289D01*
X169902289Y-35381342D01*
X169865741Y-35440597D01*
X169813793Y-35487321D01*
X169760202Y-35499500D01*
X168876076Y-35499500D01*
X168847242Y-35505234D01*
X168847243Y-35505235D01*
X168731093Y-35528339D01*
X168731083Y-35528342D01*
X168651081Y-35561479D01*
X168651082Y-35561480D01*
X168594505Y-35584915D01*
X168512372Y-35639795D01*
X168471585Y-35667047D01*
X168471581Y-35667050D01*
X161467049Y-42671582D01*
X161467044Y-42671588D01*
X161456442Y-42687456D01*
X161441022Y-42706245D01*
X160767050Y-43380216D01*
X160767044Y-43380224D01*
X160717812Y-43453904D01*
X160717813Y-43453905D01*
X160684921Y-43503132D01*
X160684914Y-43503144D01*
X160628342Y-43639722D01*
X160628340Y-43639728D01*
X160599500Y-43784715D01*
X160599500Y-51706011D01*
X160579815Y-51773050D01*
X160527011Y-51818805D01*
X160457853Y-51828749D01*
X160394297Y-51799724D01*
X160357794Y-51745016D01*
X160334814Y-51675666D01*
X160242712Y-51526344D01*
X160118656Y-51402288D01*
X159969334Y-51310186D01*
X159802797Y-51255001D01*
X159802795Y-51255000D01*
X159700010Y-51244500D01*
X158799998Y-51244500D01*
X158799977Y-51244502D01*
X158710399Y-51253652D01*
X158641707Y-51240882D01*
X158590823Y-51193000D01*
X158573903Y-51125210D01*
X158596320Y-51059034D01*
X158610112Y-51042619D01*
X159484952Y-50167780D01*
X159544712Y-50078341D01*
X159567084Y-50044859D01*
X159623658Y-49908277D01*
X159638732Y-49832499D01*
X159652500Y-49763284D01*
X159652500Y-47028081D01*
X159652499Y-47028080D01*
X159637068Y-46950500D01*
X159623659Y-46883088D01*
X159576619Y-46769524D01*
X159567084Y-46746505D01*
X159502936Y-46650500D01*
X159484952Y-46623585D01*
X159484951Y-46623583D01*
X156536055Y-43674687D01*
X156502570Y-43613364D01*
X156501811Y-43606308D01*
X156501263Y-43606395D01*
X156469709Y-43407173D01*
X156425696Y-43271718D01*
X156408884Y-43219975D01*
X156408882Y-43219972D01*
X156408882Y-43219970D01*
X156355374Y-43114956D01*
X156319524Y-43044595D01*
X156319522Y-43044592D01*
X156319521Y-43044590D01*
X156293217Y-43008386D01*
X156269736Y-42942580D01*
X156285561Y-42874526D01*
X156319219Y-42836237D01*
X156357546Y-42807546D01*
X156443796Y-42692331D01*
X156494091Y-42557483D01*
X156500500Y-42497873D01*
X156500499Y-40902128D01*
X156494091Y-40842517D01*
X156494089Y-40842514D01*
X156493330Y-40835445D01*
X156505736Y-40766685D01*
X156528938Y-40734510D01*
X156620793Y-40642656D01*
X156768870Y-40438845D01*
X156883241Y-40214379D01*
X156961090Y-39974785D01*
X157000500Y-39725962D01*
X157000500Y-39474038D01*
X156961090Y-39225215D01*
X156883241Y-38985621D01*
X156883239Y-38985618D01*
X156883239Y-38985616D01*
X156820660Y-38862799D01*
X156768870Y-38761155D01*
X156728934Y-38706187D01*
X156620798Y-38557350D01*
X156620794Y-38557345D01*
X156442654Y-38379205D01*
X156442649Y-38379201D01*
X156238848Y-38231132D01*
X156238847Y-38231131D01*
X156238845Y-38231130D01*
X156168747Y-38195413D01*
X156014383Y-38116760D01*
X155774785Y-38038910D01*
X155677112Y-38023440D01*
X155525962Y-37999500D01*
X153974038Y-37999500D01*
X153849626Y-38019205D01*
X153725214Y-38038910D01*
X153485616Y-38116760D01*
X153261151Y-38231132D01*
X153057350Y-38379201D01*
X153057345Y-38379205D01*
X152879205Y-38557345D01*
X152879201Y-38557350D01*
X152731132Y-38761151D01*
X152616760Y-38985616D01*
X152538910Y-39225214D01*
X152499500Y-39474038D01*
X152499500Y-39725961D01*
X152538910Y-39974785D01*
X152616760Y-40214383D01*
X152695413Y-40368747D01*
X152714137Y-40405495D01*
X152731132Y-40438848D01*
X152879201Y-40642649D01*
X152879205Y-40642654D01*
X152971061Y-40734510D01*
X153004546Y-40795833D01*
X153006669Y-40835446D01*
X152999501Y-40902116D01*
X152999500Y-40902135D01*
X152999500Y-42497870D01*
X152999501Y-42497876D01*
X153005908Y-42557483D01*
X153056202Y-42692328D01*
X153056206Y-42692335D01*
X153142451Y-42807543D01*
X153142452Y-42807544D01*
X153142454Y-42807546D01*
X153180777Y-42836234D01*
X153222647Y-42892167D01*
X153227631Y-42961859D01*
X153206784Y-43008385D01*
X153180475Y-43044595D01*
X153091117Y-43219970D01*
X153030290Y-43407173D01*
X152999500Y-43601577D01*
X152999500Y-43798422D01*
X153030290Y-43992826D01*
X153091117Y-44180029D01*
X153145619Y-44286994D01*
X153180476Y-44355405D01*
X153296172Y-44514646D01*
X153296174Y-44514648D01*
X153393845Y-44612319D01*
X153427330Y-44673642D01*
X153422346Y-44743334D01*
X153393845Y-44787681D01*
X153296174Y-44885351D01*
X153296174Y-44885352D01*
X153296172Y-44885354D01*
X153246485Y-44953741D01*
X153180476Y-45044594D01*
X153091117Y-45219970D01*
X153030290Y-45407173D01*
X152999500Y-45601577D01*
X152999500Y-45798422D01*
X153030290Y-45992826D01*
X153091117Y-46180029D01*
X153182352Y-46359087D01*
X153195248Y-46427757D01*
X153168971Y-46492497D01*
X153144753Y-46515699D01*
X153057350Y-46579202D01*
X153057341Y-46579209D01*
X152879205Y-46757345D01*
X152879201Y-46757350D01*
X152731132Y-46961151D01*
X152616760Y-47185616D01*
X152538910Y-47425214D01*
X152538910Y-47425215D01*
X152499500Y-47674038D01*
X152499500Y-47925962D01*
X152507236Y-47974806D01*
X152538910Y-48174785D01*
X152616760Y-48414383D01*
X152731132Y-48638848D01*
X152879201Y-48842649D01*
X152879205Y-48842654D01*
X153057345Y-49020794D01*
X153057350Y-49020798D01*
X153150028Y-49088132D01*
X153261155Y-49168870D01*
X153348741Y-49213497D01*
X153485616Y-49283239D01*
X153485618Y-49283239D01*
X153485621Y-49283241D01*
X153725215Y-49361090D01*
X153974038Y-49400500D01*
X153974039Y-49400500D01*
X155525961Y-49400500D01*
X155525962Y-49400500D01*
X155774785Y-49361090D01*
X156014379Y-49283241D01*
X156238845Y-49168870D01*
X156442656Y-49020793D01*
X156620793Y-48842656D01*
X156768870Y-48638845D01*
X156883241Y-48414379D01*
X156886868Y-48403215D01*
X156926302Y-48345540D01*
X156990660Y-48318339D01*
X157059507Y-48330250D01*
X157092481Y-48353849D01*
X157414181Y-48675549D01*
X157447666Y-48736872D01*
X157450500Y-48763230D01*
X157450500Y-49036770D01*
X157430815Y-49103809D01*
X157414181Y-49124451D01*
X155516047Y-51022584D01*
X155516045Y-51022586D01*
X155487480Y-51065339D01*
X155487472Y-51065351D01*
X155485369Y-51068500D01*
X155433916Y-51145505D01*
X155417194Y-51185874D01*
X155412964Y-51193129D01*
X155393428Y-51211596D01*
X155376564Y-51232523D01*
X155368424Y-51235232D01*
X155362189Y-51241126D01*
X155335773Y-51246098D01*
X155310269Y-51254587D01*
X155293609Y-51254036D01*
X155293525Y-51254052D01*
X155293474Y-51254031D01*
X155293243Y-51254024D01*
X155200011Y-51244500D01*
X154299998Y-51244500D01*
X154299980Y-51244501D01*
X154197203Y-51255000D01*
X154197200Y-51255001D01*
X154030668Y-51310185D01*
X154030663Y-51310187D01*
X153881342Y-51402289D01*
X153757289Y-51526342D01*
X153665187Y-51675663D01*
X153665185Y-51675668D01*
X153652648Y-51713504D01*
X153610001Y-51842203D01*
X153610001Y-51842204D01*
X153610000Y-51842204D01*
X153599500Y-51944983D01*
X153599500Y-53095001D01*
X153599501Y-53095018D01*
X153610000Y-53197796D01*
X153610001Y-53197799D01*
X153640615Y-53290185D01*
X153665186Y-53364334D01*
X153757288Y-53513656D01*
X153881344Y-53637712D01*
X154030666Y-53729814D01*
X154197203Y-53784999D01*
X154299991Y-53795500D01*
X154543770Y-53795499D01*
X154610809Y-53815183D01*
X154656564Y-53867987D01*
X154666508Y-53937146D01*
X154637483Y-54000701D01*
X154631451Y-54007180D01*
X153867047Y-54771584D01*
X153867043Y-54771589D01*
X153830851Y-54825757D01*
X153830851Y-54825758D01*
X153784913Y-54894508D01*
X153728343Y-55031082D01*
X153728340Y-55031092D01*
X153699500Y-55176079D01*
X153699500Y-55176082D01*
X153699500Y-56982362D01*
X153699500Y-56982364D01*
X153699499Y-56982364D01*
X153728340Y-57127351D01*
X153728343Y-57127361D01*
X153784914Y-57263936D01*
X153817812Y-57313171D01*
X153817813Y-57313174D01*
X153867046Y-57386858D01*
X153867052Y-57386865D01*
X155519697Y-59039508D01*
X155553182Y-59100831D01*
X155548198Y-59170522D01*
X155506326Y-59226456D01*
X155440862Y-59250873D01*
X155393013Y-59244895D01*
X155302799Y-59215001D01*
X155302795Y-59215000D01*
X155200010Y-59204500D01*
X154299998Y-59204500D01*
X154299980Y-59204501D01*
X154197203Y-59215000D01*
X154197200Y-59215001D01*
X154030668Y-59270185D01*
X154030663Y-59270187D01*
X153881342Y-59362289D01*
X153757289Y-59486342D01*
X153665187Y-59635663D01*
X153665186Y-59635666D01*
X153610001Y-59802203D01*
X153610001Y-59802204D01*
X153610000Y-59802204D01*
X153599500Y-59904983D01*
X153599500Y-61055001D01*
X153599501Y-61055018D01*
X153610000Y-61157796D01*
X153630309Y-61219082D01*
X153652158Y-61285018D01*
X153654560Y-61354845D01*
X153622133Y-61411702D01*
X151462181Y-63571655D01*
X151400858Y-63605140D01*
X151331166Y-63600156D01*
X151275233Y-63558284D01*
X151250816Y-63492820D01*
X151250500Y-63483974D01*
X151250500Y-31815186D01*
X152149500Y-31815186D01*
X152149500Y-32084813D01*
X152179686Y-32352719D01*
X152179688Y-32352731D01*
X152239684Y-32615594D01*
X152239687Y-32615602D01*
X152328734Y-32870082D01*
X152445714Y-33112994D01*
X152445716Y-33112997D01*
X152589162Y-33341289D01*
X152757266Y-33552085D01*
X152947915Y-33742734D01*
X153158711Y-33910838D01*
X153387003Y-34054284D01*
X153629921Y-34171267D01*
X153821049Y-34238145D01*
X153884397Y-34260312D01*
X153884405Y-34260315D01*
X153884408Y-34260315D01*
X153884409Y-34260316D01*
X154147268Y-34320312D01*
X154415187Y-34350499D01*
X154415188Y-34350500D01*
X154415191Y-34350500D01*
X154684812Y-34350500D01*
X154684812Y-34350499D01*
X154952732Y-34320312D01*
X155215591Y-34260316D01*
X155470079Y-34171267D01*
X155712997Y-34054284D01*
X155941289Y-33910838D01*
X156152085Y-33742734D01*
X156342734Y-33552085D01*
X156510838Y-33341289D01*
X156654284Y-33112997D01*
X156771267Y-32870079D01*
X156860316Y-32615591D01*
X156920312Y-32352732D01*
X156950500Y-32084809D01*
X156950500Y-31815191D01*
X156920312Y-31547268D01*
X156860316Y-31284409D01*
X156771267Y-31029921D01*
X156654284Y-30787003D01*
X156510838Y-30558711D01*
X156342734Y-30347915D01*
X156152085Y-30157266D01*
X155941289Y-29989162D01*
X155712997Y-29845716D01*
X155712994Y-29845714D01*
X155470082Y-29728734D01*
X155215602Y-29639687D01*
X155215594Y-29639684D01*
X155018446Y-29594687D01*
X154952732Y-29579688D01*
X154952728Y-29579687D01*
X154952719Y-29579686D01*
X154684813Y-29549500D01*
X154684809Y-29549500D01*
X154415191Y-29549500D01*
X154415186Y-29549500D01*
X154147280Y-29579686D01*
X154147268Y-29579688D01*
X153884405Y-29639684D01*
X153884397Y-29639687D01*
X153629917Y-29728734D01*
X153387005Y-29845714D01*
X153158712Y-29989161D01*
X152947915Y-30157265D01*
X152757265Y-30347915D01*
X152589161Y-30558712D01*
X152445714Y-30787005D01*
X152328734Y-31029917D01*
X152239687Y-31284397D01*
X152239684Y-31284405D01*
X152179688Y-31547268D01*
X152179686Y-31547280D01*
X152149500Y-31815186D01*
X151250500Y-31815186D01*
X151250500Y-28824500D01*
X151270185Y-28757461D01*
X151322989Y-28711706D01*
X151374500Y-28700500D01*
X172536764Y-28700500D01*
X172603803Y-28720185D01*
G37*
%TD.AperFunction*%
%TA.AperFunction,Conductor*%
G36*
X170904809Y-42370185D02*
G01*
X170925451Y-42386819D01*
X171007881Y-42469249D01*
X171022584Y-42496176D01*
X171039177Y-42521995D01*
X171040068Y-42528195D01*
X171041366Y-42530572D01*
X171044200Y-42556930D01*
X171044200Y-42586586D01*
X171024515Y-42653625D01*
X170993085Y-42686904D01*
X170919804Y-42740145D01*
X170919798Y-42740150D01*
X170765142Y-42894806D01*
X170636595Y-43071739D01*
X170537298Y-43266616D01*
X170537297Y-43266619D01*
X170469714Y-43474622D01*
X170462154Y-43522351D01*
X170432223Y-43585486D01*
X170372911Y-43622416D01*
X170303048Y-43621416D01*
X170252000Y-43590632D01*
X169878421Y-43217052D01*
X169878414Y-43217046D01*
X169804729Y-43167812D01*
X169804729Y-43167813D01*
X169755491Y-43134913D01*
X169618917Y-43078343D01*
X169618907Y-43078340D01*
X169473920Y-43049500D01*
X169473918Y-43049500D01*
X167533582Y-43049500D01*
X167533580Y-43049500D01*
X167388588Y-43078341D01*
X167388586Y-43078341D01*
X167346462Y-43095789D01*
X167316836Y-43103938D01*
X167315926Y-43104070D01*
X167233238Y-43114956D01*
X167229058Y-43116687D01*
X167216847Y-43118461D01*
X167196230Y-43115527D01*
X167174817Y-43115527D01*
X167174688Y-43116505D01*
X167167260Y-43115527D01*
X167166941Y-43115527D01*
X167166633Y-43115444D01*
X167049330Y-43100000D01*
X166992500Y-43100000D01*
X166992500Y-43189573D01*
X166972815Y-43256612D01*
X166966164Y-43264885D01*
X166966666Y-43265271D01*
X166961720Y-43271716D01*
X166961718Y-43271718D01*
X166883728Y-43373356D01*
X166865463Y-43397160D01*
X166831061Y-43480215D01*
X166787220Y-43534618D01*
X166720926Y-43556683D01*
X166653226Y-43539404D01*
X166605616Y-43488266D01*
X166592500Y-43432762D01*
X166592500Y-43100000D01*
X166592499Y-43099999D01*
X166535676Y-43100000D01*
X166418371Y-43115442D01*
X166418366Y-43115444D01*
X166272414Y-43175899D01*
X166147075Y-43272075D01*
X166050899Y-43397413D01*
X165990444Y-43543368D01*
X165982987Y-43600000D01*
X166601949Y-43600000D01*
X166613989Y-43589567D01*
X166627317Y-43587650D01*
X166639139Y-43581195D01*
X166661229Y-43582774D01*
X166683147Y-43579623D01*
X166695397Y-43585217D01*
X166708831Y-43586178D01*
X166726559Y-43599448D01*
X166746703Y-43608648D01*
X166753984Y-43619977D01*
X166764765Y-43628048D01*
X166772504Y-43648795D01*
X166784477Y-43667426D01*
X166787627Y-43689340D01*
X166789184Y-43693512D01*
X166789500Y-43702361D01*
X166789500Y-43897638D01*
X166769815Y-43964677D01*
X166717011Y-44010432D01*
X166647853Y-44020376D01*
X166603236Y-44000000D01*
X165982990Y-44000000D01*
X165982988Y-44000001D01*
X165990442Y-44056627D01*
X165990444Y-44056633D01*
X166050899Y-44202585D01*
X166147075Y-44327924D01*
X166272413Y-44424100D01*
X166418365Y-44484554D01*
X166418369Y-44484555D01*
X166535676Y-44499999D01*
X166592499Y-44499998D01*
X166592500Y-44499998D01*
X166592500Y-44167237D01*
X166612185Y-44100198D01*
X166664989Y-44054443D01*
X166734147Y-44044499D01*
X166797703Y-44073524D01*
X166831061Y-44119785D01*
X166865463Y-44202840D01*
X166966666Y-44334731D01*
X166963853Y-44336888D01*
X166989603Y-44383779D01*
X166992500Y-44410426D01*
X166992500Y-44499999D01*
X167049323Y-44499999D01*
X167166629Y-44484556D01*
X167166928Y-44484476D01*
X167167487Y-44484443D01*
X167174689Y-44483495D01*
X167174757Y-44484015D01*
X167176179Y-44483931D01*
X167181552Y-44481487D01*
X167199407Y-44482563D01*
X167216846Y-44481537D01*
X167229050Y-44483309D01*
X167233238Y-44485044D01*
X167316143Y-44495958D01*
X167316838Y-44496059D01*
X167317957Y-44496571D01*
X167346466Y-44504210D01*
X167388587Y-44521658D01*
X167388591Y-44521658D01*
X167388592Y-44521659D01*
X167533579Y-44550500D01*
X167533582Y-44550500D01*
X169037770Y-44550500D01*
X169104809Y-44570185D01*
X169125451Y-44586819D01*
X171038181Y-46499549D01*
X171071666Y-46560872D01*
X171074500Y-46587230D01*
X171074500Y-47644571D01*
X171054815Y-47711610D01*
X171023385Y-47744889D01*
X170919807Y-47820142D01*
X170919802Y-47820146D01*
X170765142Y-47974806D01*
X170636595Y-48151739D01*
X170537298Y-48346616D01*
X170537297Y-48346619D01*
X170469714Y-48554623D01*
X170435500Y-48770638D01*
X170435500Y-48989361D01*
X170469714Y-49205376D01*
X170537297Y-49413380D01*
X170537298Y-49413383D01*
X170636595Y-49608260D01*
X170765142Y-49785193D01*
X170919804Y-49939855D01*
X171023385Y-50015110D01*
X171066051Y-50070440D01*
X171074500Y-50115428D01*
X171074500Y-54621405D01*
X171054815Y-54688444D01*
X171038181Y-54709086D01*
X166430023Y-59317243D01*
X166368700Y-59350728D01*
X166299008Y-59345744D01*
X166243075Y-59303872D01*
X166218658Y-59238408D01*
X166219869Y-59210163D01*
X166229500Y-59149360D01*
X166229500Y-58930638D01*
X166209595Y-58804971D01*
X166195286Y-58714625D01*
X166144006Y-58556798D01*
X166127702Y-58506619D01*
X166127701Y-58506616D01*
X166093315Y-58439132D01*
X166028407Y-58311743D01*
X166017914Y-58297300D01*
X165899857Y-58134806D01*
X165745199Y-57980148D01*
X165594028Y-57870316D01*
X165551364Y-57814989D01*
X165545385Y-57745376D01*
X165577990Y-57683580D01*
X165594023Y-57669686D01*
X165745199Y-57559852D01*
X165899852Y-57405199D01*
X165899854Y-57405195D01*
X165899857Y-57405193D01*
X165956229Y-57327601D01*
X166028407Y-57228257D01*
X166127701Y-57033383D01*
X166195286Y-56825375D01*
X166212912Y-56714082D01*
X166229500Y-56609361D01*
X166229500Y-56390638D01*
X166204349Y-56231852D01*
X166198491Y-56194861D01*
X166207445Y-56125569D01*
X166233280Y-56087786D01*
X167132952Y-55188116D01*
X167132954Y-55188114D01*
X167184811Y-55110502D01*
X167184813Y-55110499D01*
X167215079Y-55065203D01*
X167215080Y-55065200D01*
X167215084Y-55065195D01*
X167271658Y-54928613D01*
X167300500Y-54783618D01*
X167300500Y-52926082D01*
X167300500Y-52926079D01*
X167271659Y-52781092D01*
X167271658Y-52781091D01*
X167271658Y-52781087D01*
X167263697Y-52761868D01*
X167215087Y-52644511D01*
X167215080Y-52644498D01*
X167132952Y-52521585D01*
X167117644Y-52506277D01*
X167028416Y-52417049D01*
X166863598Y-52252231D01*
X166278421Y-51667052D01*
X166278414Y-51667046D01*
X166184631Y-51604383D01*
X166184630Y-51604383D01*
X166155500Y-51584919D01*
X166155488Y-51584912D01*
X166018917Y-51528343D01*
X166018907Y-51528340D01*
X165873920Y-51499500D01*
X165873918Y-51499500D01*
X164162230Y-51499500D01*
X164095191Y-51479815D01*
X164074549Y-51463181D01*
X163538819Y-50927451D01*
X163505334Y-50866128D01*
X163502500Y-50839770D01*
X163502500Y-49703193D01*
X165737000Y-49703193D01*
X165737000Y-49961806D01*
X165777456Y-50217233D01*
X165777456Y-50217234D01*
X165857374Y-50463195D01*
X165974783Y-50693622D01*
X166054963Y-50803981D01*
X166054964Y-50803982D01*
X166741837Y-50117109D01*
X166760997Y-50163364D01*
X166837439Y-50277768D01*
X166934732Y-50375061D01*
X167049136Y-50451503D01*
X167095390Y-50470661D01*
X166408516Y-51157534D01*
X166408517Y-51157536D01*
X166518877Y-51237716D01*
X166749304Y-51355125D01*
X166995266Y-51435043D01*
X167250694Y-51475500D01*
X167509306Y-51475500D01*
X167764733Y-51435043D01*
X167764734Y-51435043D01*
X168010695Y-51355125D01*
X168241119Y-51237718D01*
X168351481Y-51157534D01*
X168351482Y-51157534D01*
X167664609Y-50470662D01*
X167710864Y-50451503D01*
X167825268Y-50375061D01*
X167922561Y-50277768D01*
X167999003Y-50163364D01*
X168018162Y-50117109D01*
X168705034Y-50803982D01*
X168705034Y-50803981D01*
X168785218Y-50693619D01*
X168902625Y-50463195D01*
X168982543Y-50217234D01*
X168982543Y-50217233D01*
X169023000Y-49961806D01*
X169023000Y-49703193D01*
X168982543Y-49447766D01*
X168982543Y-49447765D01*
X168902625Y-49201804D01*
X168785216Y-48971377D01*
X168705036Y-48861017D01*
X168705034Y-48861016D01*
X168018161Y-49547889D01*
X167999003Y-49501636D01*
X167922561Y-49387232D01*
X167825268Y-49289939D01*
X167710864Y-49213497D01*
X167664608Y-49194337D01*
X168351482Y-48507464D01*
X168351481Y-48507463D01*
X168241122Y-48427283D01*
X168010695Y-48309874D01*
X167764733Y-48229956D01*
X167509306Y-48189500D01*
X167250694Y-48189500D01*
X166995266Y-48229956D01*
X166995265Y-48229956D01*
X166749304Y-48309874D01*
X166518884Y-48427279D01*
X166408517Y-48507464D01*
X166408517Y-48507465D01*
X167095390Y-49194337D01*
X167049136Y-49213497D01*
X166934732Y-49289939D01*
X166837439Y-49387232D01*
X166760997Y-49501636D01*
X166741837Y-49547890D01*
X166054965Y-48861017D01*
X166054964Y-48861017D01*
X165974779Y-48971384D01*
X165857374Y-49201804D01*
X165777456Y-49447765D01*
X165777456Y-49447766D01*
X165737000Y-49703193D01*
X163502500Y-49703193D01*
X163502500Y-44801594D01*
X163522185Y-44734555D01*
X163538819Y-44713913D01*
X165865913Y-42386819D01*
X165927236Y-42353334D01*
X165953594Y-42350500D01*
X170837770Y-42350500D01*
X170904809Y-42370185D01*
G37*
%TD.AperFunction*%
%TD*%
M02*
